<svg width="48" height="48" viewBox="0 0 24 40" fill="none" xmlns="http://www.w3.org/2000/svg">
<path fill-rule="evenodd" clip-rule="evenodd" d="M1.17123 38.8274C0.421292 38.0763 0 37.0578 0 35.9958C0 34.9339 0.421292 33.9154 1.17123 33.1643L14.3442 19.9758L1.17123 6.78733C0.442546 6.03198 0.0393377 5.02031 0.048452 3.97021C0.0575663 2.92011 0.478273 1.9156 1.21996 1.17304C1.96164 0.43048 2.96497 0.00927648 4.01383 0.000151399C5.06269 -0.00897369 6.07317 0.39471 6.82763 1.12425L22.8288 17.1443C23.5787 17.8953 24 18.9138 24 19.9758C24 21.0378 23.5787 22.0563 22.8288 22.8074L6.82763 38.8274C6.07747 39.5782 5.06016 40 3.99943 40C2.9387 40 1.92139 39.5782 1.17123 38.8274Z" fill="#fff"/>
</svg>
