<svg width="357" height="78" viewBox="0 0 357 78" fill="none" xmlns="http://www.w3.org/2000/svg">
<g clip-path="url(#clip0_413_573)">
<path d="M22.546 34.813H0L11.6095 20.4076C13.0874 18.7438 14.4374 16.9665 15.6476 15.0914C16.7989 13.6948 17.4514 11.9416 17.4984 10.1181C17.4999 9.36766 17.3503 8.62488 17.0589 7.93568C16.7675 7.24649 16.3405 6.62554 15.8044 6.1112C15.2682 5.59687 14.6343 5.20008 13.9417 4.94537C13.2491 4.69067 12.5126 4.58346 11.7778 4.63036C10.9901 4.63003 10.2103 4.79078 9.48464 5.10309C8.75898 5.41539 8.10216 5.87291 7.55307 6.44856C7.00398 7.02421 6.57377 7.70629 6.28792 8.45443C6.00207 9.20256 5.86638 10.0015 5.88889 10.8041H1.00952C1.15858 8.0736 2.09506 5.44871 3.70159 3.25842C4.72642 2.18668 5.95853 1.34364 7.31981 0.782743C8.6811 0.221845 10.1419 -0.0446778 11.6095 7.02725e-05C18.8444 7.02725e-05 22.546 4.97334 22.546 10.2896C22.4515 12.8979 21.5702 15.413 20.0222 17.4923C18.5947 19.6594 17.0205 21.7223 15.3111 23.666L10.0952 30.0112H22.546V34.813Z" fill="white"/>
<path d="M33.6508 31.726C30.1175 27.6102 29.2762 22.1224 29.2762 17.6636C29.052 12.6484 30.6047 7.71813 33.6508 3.77278C34.5297 2.57788 35.6744 1.61277 36.9907 0.956859C38.307 0.300947 39.7573 -0.0270184 41.2222 -4.84346e-05C42.685 -0.0133899 44.1307 0.32059 45.4449 0.975439C46.7591 1.63029 47.9056 2.58802 48.7937 3.77278C52.327 7.88859 53 13.3763 53 17.6636C53 21.951 52.327 27.6102 48.7937 31.726C47.8719 32.8602 46.7146 33.7716 45.4052 34.3944C44.0959 35.0171 42.6671 35.3358 41.2222 35.3273C39.7754 35.3481 38.3427 35.0349 37.0315 34.4112C35.7203 33.7876 34.5645 32.8696 33.6508 31.726ZM36.6794 7.37412C35.029 10.5366 34.217 14.0833 34.3238 17.6636C34.2011 21.2456 35.014 24.7965 36.6794 27.9532C37.1336 28.7738 37.7936 29.4566 38.5918 29.9318C39.39 30.4069 40.2978 30.6573 41.2222 30.6573C42.1466 30.6573 43.0544 30.4069 43.8527 29.9318C44.6509 29.4566 45.3109 28.7738 45.7651 27.9532C47.4304 24.7965 48.2433 21.2456 48.1206 17.6636C48.2274 14.0833 47.4155 10.5366 45.7651 7.37412C45.3109 6.5535 44.6509 5.87066 43.8527 5.3955C43.0544 4.92035 42.1466 4.66995 41.2222 4.66995C40.2978 4.66995 39.39 4.92035 38.5918 5.3955C37.7936 5.87066 37.1336 6.5535 36.6794 7.37412Z" fill="white"/>
<path d="M22.546 77H0L11.6095 62.7661C13.0489 61.0102 14.3968 59.1784 15.6476 57.2784C16.7751 55.9345 17.4269 54.2434 17.4984 52.4766C17.5234 51.7119 17.3911 50.9502 17.1102 50.2407C16.8293 49.5311 16.4059 48.8892 15.8672 48.3563C15.3285 47.8234 14.6864 47.4112 13.9821 47.1461C13.2779 46.8811 12.527 46.7691 11.7778 46.8174C10.9822 46.8396 10.1988 47.0214 9.47224 47.3523C8.74566 47.6833 8.0902 48.1569 7.54331 48.7462C6.99641 49.3355 6.56881 50.0288 6.28494 50.7866C6.00106 51.5444 5.86648 52.3518 5.88889 53.1626H1.00952C1.12762 50.4257 2.06732 47.7918 3.70159 45.6169C4.7117 44.5142 5.93722 43.6392 7.29922 43.0485C8.66122 42.4578 10.1295 42.1643 11.6095 42.1871C18.8444 42.1871 22.546 47.3318 22.546 52.6481C22.4304 55.2522 21.5513 57.7612 20.0222 59.8508C18.8444 61.5657 17.3302 63.4521 15.3111 65.853L10.0952 72.1982H22.546V77Z" fill="white"/>
<path d="M51.1492 77H28.6032L40.2127 62.7661C41.6521 61.0102 43 59.1784 44.2508 57.2784C45.3783 55.9345 46.0301 54.2434 46.1016 52.4766C46.1265 51.7119 45.9943 50.9502 45.7134 50.2407C45.4325 49.5311 45.0091 48.8892 44.4703 48.3563C43.9316 47.8234 43.2895 47.4112 42.5853 47.1461C41.881 46.8811 41.1302 46.7691 40.381 46.8174C39.5854 46.8396 38.802 47.0214 38.0754 47.3523C37.3488 47.6833 36.6934 48.1569 36.1465 48.7462C35.5996 49.3355 35.172 50.0288 34.8881 50.7866C34.6042 51.5444 34.4697 52.3518 34.4921 53.1626H29.6127C29.7308 50.4257 30.6705 47.7918 32.3048 45.6169C33.3149 44.5142 34.5404 43.6392 35.9024 43.0485C37.2644 42.4578 38.7327 42.1643 40.2127 42.1871C47.4476 42.1871 51.1492 47.3318 51.1492 52.6481C51.0336 55.2522 50.1544 57.7612 48.6254 59.8508C47.4476 61.5657 45.9333 63.4521 43.9143 65.853L38.6984 72.1982H51.1492V77Z" fill="white"/>
</g>
<path d="M77.5597 4.1305C77.5773 2.91078 77.4619 1.69259 77.2153 0.495483C81.8977 0.618502 82.8517 0.864552 82.8517 1.47568C82.8517 1.92608 82.4655 2.13044 81.5198 2.37449V6.09086H91.6592L98.5336 5.92815V9.39846L91.6592 9.27544H86.6678C90.7052 10.7457 91.3064 11.1128 91.3064 11.6842C91.3064 12.1743 90.749 12.4204 89.5445 12.3787C89.3733 12.7874 89.1583 13.2359 88.9432 13.6446C91.7398 15.4397 94.3443 17.4913 96.7195 19.7697L93.7551 22.4742C91.5214 20.0654 89.5445 18.1884 87.2252 16.472C85.5154 18.7704 83.4779 20.8318 81.1712 22.5972C82.4238 22.7599 82.8037 23.0059 82.8037 23.3333C82.8037 23.7817 82.4613 24.0258 81.4718 24.2718V26.3135H92.9869L99.8613 26.1508V29.7025L92.9869 29.5398H81.4677V32.9685L81.6409 38.6452H77.3447L77.5159 32.9685V29.5398H66.6459L59.7298 29.7025V26.1508L66.6459 26.3135H77.5159V25.5377C77.5339 24.4532 77.4183 23.3704 77.1714 22.3115C78.4071 22.3256 79.6408 22.4077 80.8664 22.5575C80.1197 21.674 79.1976 20.9385 78.1526 20.3928C81.9332 17.7379 84.123 15.0831 85.6282 11.7775C86.0092 10.9826 86.2834 10.1453 86.4444 9.28538H70.5998C74.6371 10.7556 75.2383 11.1227 75.2383 11.6942C75.2383 12.1843 74.681 12.4303 73.4785 12.3886C73.3052 12.716 73.1779 13.0017 73.0046 13.3291C75.1496 14.7835 77.1358 16.4387 78.9333 18.2697L76.0107 20.8015C74.5788 19.136 72.9974 17.5918 71.2845 16.1863C69.5827 18.8542 67.4015 21.2174 64.8401 23.1686C64.0069 22.2347 63.0199 21.4353 61.9175 20.8015C65.4831 18.2221 68.1803 14.7577 69.5643 11.7775C69.9472 10.9833 70.2215 10.1458 70.3806 9.28538H68.0654L61.1911 9.40839V5.93808L68.0654 6.10077H77.5597V4.1305Z" fill="white"/>
<path d="M126.444 28.194C130.61 31.3611 136.009 33.0487 142.47 34.0764C141.604 35.1694 140.849 36.3413 140.217 37.5754C132.864 36.0119 128.146 33.8305 124.193 30.3334L124.399 38.6452H120.452L120.659 30.3734C116.578 33.7885 111.732 35.9299 104.889 37.5715C104.267 36.3243 103.401 35.2059 102.339 34.2783C109.097 33.0787 114.155 31.3991 118.277 28.19H110.462L103.662 28.3539V24.9788L110.462 25.1448H120.537V22.7155H115.479L108.677 22.8814V19.5483L115.479 19.7123H120.537V17.3269H113.132L106.331 17.4909V14.1578L113.132 14.3217H115.471C115.134 13.1006 114.708 11.9045 114.194 10.7427H109.91L103.109 10.9067V7.53357L109.91 7.69754H117.307V3.41869C117.303 2.43519 117.189 1.45498 116.966 0.495483C121.642 0.695429 122.237 0.907385 122.237 1.48323C122.237 1.81314 121.94 2.14303 120.878 2.38896V7.69754H123.937V3.41869C123.934 2.43526 123.821 1.45505 123.598 0.495483C128.272 0.695429 128.954 0.907385 128.954 1.48323C128.954 1.81314 128.656 2.14303 127.593 2.38896V7.69754H132.779C131.909 7.25975 130.998 6.90163 130.059 6.62783C130.834 5.53688 131.476 4.36271 131.971 3.12878C132.207 2.57298 132.378 1.99358 132.482 1.40124C136.435 2.63691 137.071 2.96481 137.071 3.54066C137.071 3.91255 136.689 4.11652 135.584 4.15851C135.019 5.38896 134.351 6.57258 133.587 7.69754H134.692L141.534 7.53357V10.9067L134.692 10.7427H130.526C130.143 11.9424 129.718 13.1281 129.208 14.3217H132.013L138.814 14.1578V17.4909L132.013 17.3269H124.319V19.7123H129.677L136.476 19.5483V22.8814L129.677 22.7155H124.319V25.1448H134.44L141.284 24.9788V28.3539L134.44 28.19L126.444 28.194ZM111.738 1.48721C112.999 2.80352 114.085 4.26793 114.969 5.84604L111.569 7.64555C110.775 6.0133 109.759 4.49094 108.549 3.11877L111.738 1.48721ZM118.114 10.7467C118.59 11.9184 119.004 13.113 119.354 14.3257H125.298C125.774 13.1539 126.187 11.9594 126.537 10.7467H118.114Z" fill="white"/>
<path d="M155.479 6.8398C155.066 9.9051 154.303 12.9189 153.203 15.8282H156.595L160.33 15.6661L160.538 15.8638L160.409 20.9885V27.5361L160.582 33.0699H156.683V31.3208H152.99V35.2735H149.173L149.346 29.133V24.6585L149.431 23.5201C148.831 24.536 148.142 25.5933 147.414 26.6507C146.57 25.7156 145.569 24.919 144.452 24.2929C148.23 19.4924 150.677 14.2135 151.664 6.84373H151.105L145.91 7.0058V3.50766L151.105 3.67171H156.086L160.98 3.50766V7.0058L156.086 6.84373L155.479 6.8398ZM156.683 28.2337V19.0002H152.99V28.2337H156.683ZM170.42 20.8303C170.42 29.6982 167.587 35.5956 158.4 38.6451C157.67 37.6293 156.731 36.4494 155.523 35.6806C164.325 33.4434 166.601 28.2792 166.601 20.4291V19.4528L161.492 19.5734V15.9547L166.601 16.0772V6.92477L162.22 7.0473V3.46814L169.087 3.63019H177.588L184.5 3.46814V7.0473L179.478 6.92477V16.1168L185.574 15.9547V19.5734L179.478 19.4113V30.3128L179.649 38.6135H175.477L175.604 30.3128V19.4074H170.41L170.42 20.8303ZM175.615 16.1128V6.88129H170.42V16.1128H175.615Z" fill="white"/>
<path d="M206.982 24.3974C206.47 29.0066 204.848 31.6976 202.074 33.909C199.598 35.8648 195.46 37.3748 190.938 38.1496C190.554 37.1291 189.693 36.1106 188.547 35.0901C194.863 34.1528 197.38 33.051 199.727 31.1764C201.386 29.8706 202.63 27.996 203.055 24.4053H197.38L192.217 24.5282V21.3576L197.38 21.5201H203.227V19.1957C203.227 18.3 203.227 18.0068 202.843 16.2233C207.749 16.6315 208.518 16.7524 208.518 17.5292C208.518 17.9255 208.133 18.1395 207.152 18.3852V21.5241H212.958L214.152 20.5452H214.623C217.608 22.7071 218.035 23.0737 218.035 23.4819C218.035 23.9713 217.693 24.2171 216.756 24.7065L216.59 32.4803C216.549 33.8258 216.762 34.0656 219.45 34.0656C223.596 34.0656 223.76 33.9427 223.804 29.4564C225.013 30.1693 226.32 30.7187 227.687 31.0892C227.345 36.5941 225.809 37.4501 219.835 37.4501C213.051 37.4501 212.578 36.8378 212.667 33.372L212.837 24.3994L206.982 24.3974ZM219.783 5.59804L226.439 5.43556L226.647 5.59804L226.476 9.63652L226.684 14.5291H222.728V8.78247H213.509V13.8395C213.509 14.6559 213.509 14.6559 215.558 14.6559C218.332 14.6559 218.417 14.3706 218.546 11.311C219.694 12.0239 220.944 12.5739 222.257 12.9438C221.917 17.2657 220.849 17.9988 215.473 18.0405C210.778 18.0821 209.713 17.4281 209.713 14.6143V8.78247H202.843C206.298 9.39478 206.81 9.68011 206.81 10.2508C206.81 10.659 206.385 10.8631 205.232 10.986C203.482 16.368 200.154 18.1633 194.778 19.5484C194.132 18.4434 193.295 17.4511 192.302 16.6137C198.108 15.6348 200.453 13.6413 201.425 10.1696C201.539 9.71243 201.625 9.24926 201.682 8.78247H194.01V14.5291H189.998L190.206 9.63652L190.036 5.59804L190.243 5.43556L196.901 5.59804H206.161V4.66075C206.161 3.23401 206.117 2.8258 205.819 0.990845C210.469 1.11172 211.417 1.35745 211.417 1.96976C211.417 2.36608 210.99 2.62171 210.094 2.86545V5.59804H219.783Z" fill="white"/>
<path d="M260.15 22.9194H264.026L269.858 22.7559V25.9115L264.026 25.7894H263.343C266.281 27.9779 266.622 28.2616 266.622 28.8289C266.622 29.1539 266.366 29.3154 265.942 29.3154C265.551 29.2952 265.165 29.2291 264.791 29.1184C263.33 30.0205 261.809 30.833 260.239 31.5512C262.795 33.2945 266.2 34.309 270.792 34.9964C269.966 36.005 269.253 37.0922 268.663 38.2408C263.076 37.2677 258.656 35.2407 255.546 31.7541C255.462 32.6858 255.418 33.6195 255.377 34.5926C250.777 35.7745 246.687 36.659 241.58 37.5474C241.537 38.2368 241.325 38.6012 240.941 38.6426C240.216 38.682 239.962 38.3176 238.429 34.506C239.6 34.4794 240.767 34.3714 241.921 34.1829C242.646 34.0608 243.326 33.9386 243.964 33.8579V25.7914H238.683C237.831 30.452 236.084 34.3858 233.061 37.7897C232.252 36.8022 231.272 35.9523 230.165 35.2762C233.997 31.1021 235.445 25.7106 235.445 18.6153V9.45353L235.273 3.16976L235.53 2.97278L241.874 3.13627H259.801L266.401 3.01414L266.608 3.21112L266.48 6.73714V9.3314L266.608 12.7786L266.438 13.0209L260.15 12.9106V16.3578H260.235L267.049 16.1943V19.3579L260.235 19.1944H260.15V22.9194ZM246.269 19.2298L240.349 19.352V16.1884L246.269 16.3105V12.9106H239.279V18.1819C239.279 19.8444 239.194 21.4242 239.072 22.9253H246.269V19.2298ZM262.662 6.29787H239.281V9.82386H262.662V6.29787ZM247.717 25.7993V33.1763C250.27 32.6898 252.784 32.083 255.337 31.5157C253.848 29.8118 252.826 27.8656 251.973 25.8032L247.717 25.7993ZM256.531 12.9067H249.887V16.3539H256.531V12.9067ZM249.887 19.1905V22.9213H256.531V19.1905H249.887ZM255.551 25.7993C256.172 27.127 256.958 28.3789 257.893 29.5282C259.894 28.3935 261.299 27.582 262.108 26.8925C262.491 26.5666 262.834 26.1998 263.13 25.7993H255.551Z" fill="white"/>
<path d="M306.615 17.9479L306.788 18.1466L306.615 23.2176V26.9791L306.788 32.0501L306.58 32.3362L301.102 32.1733H299.35V33.8583C299.35 34.6353 299.391 34.7167 303.798 34.7167C309.873 34.7167 310.345 34.3491 310.387 30.7088C311.798 31.5275 312.954 32.1415 313.896 32.4674C313.553 37.5801 312.74 38.0312 303.842 38.0312C295.84 38.0312 295.541 37.5821 295.541 33.9835V32.1832H291.263C289.082 36.5548 284.631 38.1444 275.818 38.6452C275.22 37.3774 274.706 36.4773 273.764 35.4957C280.995 35.3327 285.018 34.7604 286.899 32.1832H286.471L281.038 32.3462L280.739 31.9786L280.91 27.0308V23.2275L280.739 18.1565L280.947 17.9578L286.381 18.1228H301.185L306.615 17.9479ZM290.144 5.96588L294.08 5.80295L294.252 6.04935L294.167 8.63253C296.348 6.62957 297.888 4.74781 298.657 3.03098C299.3 1.64004 299.385 1.44133 299.599 0.495483C303.707 1.76323 304.048 2.00766 304.048 2.62166C304.048 2.98927 303.792 3.23565 302.385 3.35686C302.127 3.93113 301.828 4.46167 301.528 4.9942H307.647L313.675 4.87101V8.18345L307.647 8.01851H299.562C298.703 9.13326 297.744 10.1738 296.695 11.1283C295.838 10.1864 295.196 9.57438 294.171 8.96038V9.20481L294.256 12.2311L294.048 12.4298L290.325 12.3066H287.716V14.1864H289.298L294.603 14.0632V16.7696L289.298 16.6861H281.768L276.378 16.851L276.17 16.6523L276.342 11.6231V6.79649L276.17 1.84869L276.378 1.64998L281.768 1.77318H289.599L294.946 1.64998V4.43187L289.599 4.31066H287.716V5.98575L290.144 5.96588ZM284.284 4.29077H279.747V5.96588H284.284V4.29077ZM279.747 10.0135H290.963V8.25499H279.754L279.747 10.0135ZM279.747 12.3026V14.1864H284.284V12.3046L279.747 12.3026ZM284.625 20.6483V22.079H302.851V20.6483H284.625ZM284.625 25.8405H302.851V24.3681H284.625V25.8405ZM284.625 29.6855H302.851V28.1316H284.625V29.6855ZM297.075 15.3786V12.1L302.295 12.1834H306.453L311.673 12.1V15.3786L306.453 15.2554H302.295L297.075 15.3786Z" fill="white"/>
<path d="M346.996 18.1164L340.578 17.9535H332.096L325.636 18.1164V14.6807C323.511 16.1359 321.312 17.4875 319.044 18.7304C318.145 17.5827 317.079 16.5636 315.878 15.7041C324.436 11.5312 329.144 7.72983 332.824 2.61702C333.401 1.81326 333.848 0.931023 334.151 0C338.517 0.776956 339.199 0.981631 339.199 1.71686C339.199 2.04473 338.9 2.29114 338.216 2.37261C343.607 8.91415 348.612 11.6544 357 14.5178C355.825 15.5989 354.804 16.8228 353.962 18.1581C351.353 17.0116 349.043 15.9087 346.988 14.6807L346.996 18.1164ZM333.816 25.8045C332.662 28.2168 331.42 30.6292 330.094 32.958C335.142 32.7136 340.193 32.3043 345.242 31.9367C344.044 30.7444 342.759 29.6456 341.391 28.501L344.385 26.4563C348.579 29.7688 351.405 32.7951 354.613 36.3123L351.226 38.6451C350.113 37.2542 349.086 36.0281 348.059 34.8836C337.534 35.9467 330.088 36.5587 321.785 37.133C321.529 37.9914 321.186 38.4405 320.801 38.4405C319.988 38.4405 319.818 38.1543 318.277 33.2462C320.587 33.3297 320.887 33.3296 322.213 33.2879C323.155 33.2462 324.353 33.2064 325.679 33.1647C327.006 30.7524 328.204 28.3016 329.275 25.8124H323.717L316.828 25.9754V22.2138L323.717 22.3767H349.007L355.896 22.2138V25.9754L349.007 25.8124L333.816 25.8045ZM346.524 14.3946C342.418 11.9822 338.908 8.75119 335.92 5.11281C333.131 8.66324 329.799 11.7922 326.035 14.3946L332.111 14.5595H340.584L346.524 14.3946Z" fill="white"/>
<path d="M245.397 51.7433H248.442V53.0031H245.397V51.7433Z" fill="white"/>
<path d="M256.412 50.6172C256.681 50.8627 256.896 51.1585 257.043 51.4865C257.19 51.8145 257.266 52.1678 257.266 52.5249C257.266 52.8819 257.19 53.2352 257.043 53.5632C256.896 53.8912 256.681 54.187 256.412 54.4325C255.829 54.8786 255.106 55.1215 254.361 55.1215C253.616 55.1215 252.893 54.8786 252.311 54.4325C252.04 54.1873 251.825 53.8916 251.678 53.5636C251.531 53.2355 251.455 52.8821 251.455 52.5249C251.455 52.1676 251.531 51.8142 251.678 51.4862C251.825 51.1581 252.04 50.8624 252.311 50.6172C252.893 50.1711 253.616 49.9282 254.361 49.9282C255.106 49.9282 255.829 50.1711 256.412 50.6172ZM255.788 52.5299C255.788 52.2582 255.704 51.9927 255.546 51.7671C255.389 51.5414 255.166 51.3657 254.904 51.2621C254.643 51.1585 254.355 51.1317 254.078 51.1851C253.801 51.2384 253.547 51.3696 253.347 51.562C253.147 51.7544 253.012 51.9993 252.957 52.2659C252.902 52.5324 252.931 52.8085 253.039 53.0594C253.148 53.3102 253.332 53.5245 253.567 53.6751C253.802 53.8257 254.079 53.9059 254.361 53.9055C254.55 53.9073 254.736 53.873 254.911 53.8045C255.085 53.736 255.243 53.6347 255.376 53.5065C255.509 53.3783 255.614 53.2259 255.685 53.0582C255.756 52.8905 255.791 52.7108 255.788 52.5299Z" fill="white"/>
<path d="M260.38 50.0782H261.807V50.7111C261.979 50.4629 262.214 50.26 262.488 50.1206C262.763 49.9811 263.069 49.9096 263.38 49.9125C263.824 49.9125 264.481 50.0383 264.88 50.5114C265.231 50.9287 265.278 51.4119 265.278 51.887V54.9497H263.847V52.2923C263.847 52.0228 263.847 51.5936 263.577 51.334C263.489 51.2519 263.384 51.1877 263.27 51.1451C263.155 51.1026 263.033 51.0826 262.91 51.0864C262.737 51.076 262.565 51.1101 262.41 51.1852C262.256 51.2603 262.125 51.3737 262.031 51.5137C261.862 51.8006 261.784 52.1289 261.807 52.458V54.9497H260.38V50.0782Z" fill="white"/>
<path d="M270.073 46.756V54.9637H268.646V46.756H270.073Z" fill="white"/>
<path d="M274.145 47.2053C274.315 47.2053 274.48 47.2536 274.621 47.3441C274.762 47.4346 274.871 47.5631 274.936 47.7136C275.001 47.864 275.018 48.0295 274.985 48.1891C274.951 48.3487 274.87 48.4953 274.75 48.6102C274.63 48.7252 274.477 48.8034 274.311 48.8349C274.145 48.8664 273.973 48.8498 273.816 48.7872C273.66 48.7247 273.526 48.619 273.433 48.4834C273.339 48.3479 273.289 48.1887 273.289 48.0259C273.291 47.8084 273.382 47.6003 273.542 47.4467C273.702 47.2931 273.919 47.2064 274.145 47.2053ZM274.86 50.0863V54.9637H273.433V50.0783L274.86 50.0863Z" fill="white"/>
<path d="M278.225 50.0782H279.653V50.7111C279.825 50.4629 280.059 50.26 280.334 50.1206C280.608 49.9811 280.915 49.9096 281.225 49.9125C281.67 49.9125 282.326 50.0383 282.725 50.5114C283.076 50.9287 283.122 51.4119 283.122 51.887V54.9497H281.693V52.2923C281.693 52.0228 281.693 51.5936 281.423 51.334C281.334 51.2518 281.229 51.1876 281.114 51.1451C280.999 51.1025 280.877 51.0826 280.754 51.0864C280.581 51.0764 280.409 51.1106 280.255 51.1857C280.101 51.2608 279.97 51.374 279.877 51.5137C279.707 51.8003 279.629 52.1289 279.653 52.458V54.9497H278.225V50.0782Z" fill="white"/>
<path d="M291.469 53.6021C291.316 53.9615 290.742 55.1214 288.976 55.1214C288.621 55.1376 288.266 55.085 287.932 54.9666C287.599 54.8483 287.293 54.6667 287.034 54.4326C286.765 54.1902 286.554 53.8944 286.416 53.5659C286.278 53.2373 286.216 52.8839 286.234 52.53C286.221 52.1774 286.283 51.826 286.416 51.4971C286.548 51.1683 286.75 50.8689 287.007 50.6173C287.261 50.3848 287.561 50.204 287.89 50.0857C288.218 49.9673 288.568 49.9139 288.918 49.9285C289.957 49.9285 290.547 50.3278 290.898 50.7271C291.438 51.346 291.507 52.1107 291.507 52.6418V52.7556H287.711C287.705 53.0474 287.792 53.3342 287.958 53.5781C288.076 53.7287 288.231 53.8493 288.408 53.9297C288.585 54.0101 288.781 54.0477 288.976 54.0393C289.216 54.0463 289.453 53.99 289.662 53.8767C289.871 53.7634 290.043 53.5973 290.161 53.3964L291.469 53.6021ZM290.156 51.8791C290.11 51.6047 289.964 51.3551 289.744 51.1749C289.524 50.9947 289.244 50.8957 288.955 50.8957C288.665 50.8957 288.386 50.9947 288.165 51.1749C287.945 51.3551 287.799 51.6047 287.753 51.8791H290.156Z" fill="white"/>
<path d="M302.108 51.2461C301.887 51.0369 301.588 50.92 301.277 50.9207C300.939 50.9207 300.727 51.0784 300.727 51.32C300.727 51.4438 300.787 51.6335 301.184 51.7572L301.523 51.8611C301.921 51.9848 302.52 52.1745 302.813 52.5558C302.983 52.7952 303.073 53.0785 303.072 53.3684C303.077 53.6017 303.028 53.8331 302.931 54.0468C302.833 54.2605 302.689 54.4513 302.507 54.6063C302.091 54.9654 301.543 55.1519 300.984 55.1253C300.615 55.1341 300.248 55.066 299.908 54.9257C299.569 54.7855 299.265 54.5764 299.017 54.3127L299.767 53.4822C299.904 53.6455 300.074 53.7798 300.268 53.8767C300.461 53.9736 300.673 54.031 300.891 54.0452C301.29 54.0452 301.595 53.8456 301.595 53.5141C301.586 53.3962 301.538 53.2842 301.457 53.1946C301.377 53.1051 301.269 53.0428 301.149 53.017L300.822 52.9072C300.417 52.7953 300.044 52.5951 299.732 52.3222C299.606 52.1984 299.507 52.0519 299.441 51.8912C299.375 51.7305 299.342 51.5588 299.345 51.3859C299.345 51.1764 299.392 50.9694 299.483 50.7792C299.574 50.5889 299.707 50.4199 299.873 50.2838C300.261 50.027 300.728 49.9032 301.198 49.9324C301.783 49.9218 302.353 50.1051 302.813 50.4515L302.108 51.2461Z" fill="white"/>
<path d="M311.064 53.6021C310.909 53.9615 310.337 55.1214 308.571 55.1214C308.216 55.1376 307.861 55.085 307.527 54.9666C307.194 54.8483 306.888 54.6667 306.629 54.4326C306.36 54.1905 306.149 53.8948 306.01 53.5662C305.872 53.2376 305.81 52.8839 305.829 52.53C305.816 52.1774 305.878 51.826 306.011 51.4971C306.143 51.1683 306.345 50.8689 306.602 50.6173C306.856 50.3848 307.156 50.204 307.485 50.0857C307.813 49.9673 308.163 49.9139 308.513 49.9285C309.552 49.9285 310.14 50.3278 310.493 50.7271C311.031 51.346 311.102 52.1107 311.102 52.6418V52.7556H307.302C307.295 53.0476 307.382 53.3346 307.549 53.5781C307.667 53.7291 307.821 53.85 307.999 53.9304C308.176 54.0108 308.371 54.0482 308.567 54.0393C308.807 54.0463 309.044 53.99 309.253 53.8767C309.461 53.7634 309.634 53.5973 309.751 53.3964L311.064 53.6021ZM309.751 51.8791C309.705 51.6047 309.559 51.3551 309.339 51.1749C309.119 50.9947 308.839 50.8957 308.55 50.8957C308.26 50.8957 307.981 50.9947 307.76 51.1749C307.54 51.3551 307.394 51.6047 307.348 51.8791H309.751Z" fill="white"/>
<path d="M316.967 51.2461C316.745 51.0369 316.446 50.92 316.136 50.9207C315.797 50.9207 315.587 51.0784 315.587 51.32C315.587 51.4438 315.645 51.6334 316.044 51.7572L316.383 51.861C316.78 51.9848 317.378 52.1745 317.671 52.5558C317.841 52.7952 317.932 53.0785 317.931 53.3684C317.935 53.6017 317.887 53.8331 317.789 54.0468C317.692 54.2604 317.547 54.4513 317.366 54.6062C316.949 54.9656 316.402 55.1521 315.843 55.1253C315.473 55.1338 315.106 55.0656 314.767 54.9253C314.427 54.7851 314.123 54.5761 313.875 54.3127L314.625 53.4822C314.762 53.6457 314.933 53.7802 315.127 53.8771C315.321 53.974 315.533 54.0312 315.751 54.0452C316.148 54.0452 316.456 53.8455 316.456 53.5141C316.446 53.396 316.397 53.2839 316.317 53.1944C316.236 53.105 316.127 53.0427 316.007 53.017L315.683 52.9072C315.276 52.7957 314.902 52.5955 314.59 52.3222C314.338 52.0713 314.2 51.7346 314.206 51.3859C314.205 51.1766 314.252 50.9696 314.342 50.7793C314.433 50.589 314.566 50.42 314.731 50.2838C315.12 50.0272 315.586 49.9035 316.057 49.9324C316.641 49.9218 317.211 50.1051 317.671 50.4515L316.967 51.2461Z" fill="white"/>
<path d="M323.706 51.2461C323.484 51.0369 323.186 50.92 322.875 50.9207C322.536 50.9207 322.324 51.0784 322.324 51.32C322.324 51.4437 322.385 51.6334 322.782 51.7572L323.12 51.861C323.519 51.9848 324.117 52.1745 324.41 52.5558C324.579 52.7956 324.668 53.0789 324.666 53.3684C324.671 53.6012 324.624 53.8323 324.527 54.046C324.431 54.2596 324.287 54.4507 324.107 54.6062C323.689 54.9651 323.142 55.1516 322.582 55.1253C322.213 55.134 321.846 55.0659 321.506 54.9257C321.166 54.7854 320.862 54.5763 320.615 54.3127L321.365 53.4822C321.501 53.6455 321.672 53.7798 321.865 53.8767C322.059 53.9736 322.271 54.0309 322.489 54.0452C322.887 54.0452 323.193 53.8455 323.193 53.5141C323.184 53.3962 323.135 53.2841 323.055 53.1946C322.975 53.1051 322.866 53.0428 322.746 53.017L322.418 52.9072C322.013 52.7952 321.641 52.595 321.329 52.3222C321.204 52.1984 321.105 52.0519 321.039 51.8912C320.972 51.7304 320.94 51.5587 320.943 51.3859C320.943 51.1764 320.99 50.9694 321.081 50.7791C321.172 50.5889 321.305 50.4199 321.471 50.2838C321.858 50.0275 322.323 49.9037 322.792 49.9324C323.377 49.9213 323.949 50.1047 324.41 50.4515L323.706 51.2461Z" fill="white"/>
<path d="M328.397 47.2053C328.566 47.2053 328.732 47.2536 328.873 47.3441C329.014 47.4346 329.123 47.5631 329.188 47.7136C329.253 47.864 329.27 48.0295 329.236 48.1891C329.203 48.3487 329.121 48.4953 329.001 48.6102C328.882 48.7252 328.729 48.8034 328.563 48.8349C328.397 48.8664 328.224 48.8498 328.068 48.7872C327.912 48.7247 327.778 48.619 327.684 48.4834C327.591 48.3479 327.541 48.1887 327.541 48.0259C327.543 47.8084 327.633 47.6003 327.794 47.4467C327.954 47.2931 328.171 47.2064 328.397 47.2053ZM329.11 50.0863V54.9637H327.682V50.0783L329.11 50.0863Z" fill="white"/>
<path d="M337.17 50.6172C337.441 50.8624 337.656 51.1581 337.803 51.4862C337.95 51.8142 338.026 52.1676 338.026 52.5249C338.026 52.8821 337.95 53.2355 337.803 53.5636C337.656 53.8916 337.441 54.1873 337.17 54.4325C336.588 54.8786 335.865 55.1215 335.12 55.1215C334.375 55.1215 333.652 54.8786 333.069 54.4325C332.8 54.187 332.585 53.8912 332.438 53.5632C332.291 53.2352 332.215 52.8819 332.215 52.5249C332.215 52.1678 332.291 51.8145 332.438 51.4865C332.585 51.1585 332.8 50.8627 333.069 50.6172C333.652 50.1711 334.375 49.9282 335.12 49.9282C335.865 49.9282 336.588 50.1711 337.17 50.6172ZM336.547 52.5299C336.547 52.2582 336.462 51.9927 336.305 51.7671C336.148 51.5414 335.924 51.3657 335.663 51.2621C335.401 51.1585 335.114 51.1317 334.837 51.1851C334.56 51.2384 334.305 51.3696 334.106 51.562C333.906 51.7544 333.77 51.9993 333.715 52.2659C333.661 52.5324 333.689 52.8085 333.798 53.0594C333.907 53.3102 334.09 53.5245 334.325 53.6751C334.561 53.8257 334.837 53.9059 335.12 53.9055C335.308 53.9073 335.495 53.873 335.67 53.8045C335.844 53.736 336.002 53.6347 336.136 53.5066C336.269 53.3785 336.374 53.2261 336.445 53.0583C336.516 52.8906 336.551 52.7109 336.549 52.5299H336.547Z" fill="white"/>
<path d="M341.14 50.0782H342.568V50.7111C342.74 50.4629 342.974 50.26 343.249 50.1206C343.523 49.9811 343.83 49.9096 344.14 49.9125C344.583 49.9125 345.241 50.0383 345.64 50.5114C345.991 50.9287 346.037 51.4119 346.037 51.887V54.9497H344.608V52.2923C344.608 52.0228 344.597 51.5936 344.338 51.334C344.249 51.2518 344.144 51.1876 344.029 51.1451C343.914 51.1025 343.792 51.0826 343.669 51.0864C343.496 51.0764 343.324 51.1106 343.17 51.1857C343.016 51.2608 342.885 51.374 342.792 51.5137C342.622 51.8003 342.544 52.1289 342.568 52.458V54.9497H341.14V50.0782Z" fill="white"/>
<path d="M349.309 51.7433H352.355V53.0031H349.309V51.7433Z" fill="white"/>
<path d="M249.423 69.3765L245.204 62.3568H247.429L250.395 67.3021L253.37 62.3568H255.608L251.388 69.3765V74.7071H249.423V69.3765Z" fill="white"/>
<path d="M265.627 70.8199C265.627 73.2157 263.739 74.9487 261.292 74.9487C258.844 74.9487 256.954 73.2097 256.954 70.8199C256.954 68.4301 258.847 66.7091 261.292 66.7091C263.737 66.7091 265.627 68.4121 265.627 70.8199ZM263.7 70.8399C263.7 69.059 262.486 68.3382 261.292 68.3382C260.097 68.3382 258.882 69.059 258.882 70.8399C258.882 72.3372 259.81 73.3195 261.292 73.3195C262.773 73.3195 263.702 72.3372 263.702 70.8419L263.7 70.8399Z" fill="white"/>
<path d="M270.073 66.9107V71.3769C270.073 71.8381 270.09 72.3751 270.418 72.7744C270.572 72.9432 270.762 73.0785 270.974 73.1711C271.187 73.2638 271.418 73.3117 271.651 73.3117C271.885 73.3117 272.115 73.2638 272.328 73.1711C272.541 73.0785 272.73 72.9432 272.884 72.7744C273.212 72.3751 273.229 71.8301 273.229 71.3769V66.9107H275.122V71.4408C275.122 72.439 275.005 73.2736 274.253 73.9963C273.54 74.6394 272.591 74.9853 271.613 74.9586C271.14 74.969 270.671 74.8893 270.231 74.7241C269.791 74.559 269.389 74.3116 269.049 73.9963C268.297 73.2736 268.181 72.443 268.181 71.4408V66.9207L270.073 66.9107Z" fill="white"/>
<path d="M282.009 64.1356V74.7071H280.041V64.1356H277.093V62.3568H284.948V64.1356H282.009Z" fill="white"/>
<path d="M288.819 66.9107V71.3769C288.819 71.8381 288.835 72.3751 289.163 72.7744C289.318 72.9433 289.507 73.0785 289.72 73.1712C289.933 73.2639 290.164 73.3118 290.398 73.3118C290.631 73.3118 290.862 73.2639 291.075 73.1712C291.288 73.0785 291.478 72.9433 291.632 72.7744C291.96 72.3751 291.976 71.8301 291.976 71.3769V66.9107H293.867V71.4408C293.867 72.439 293.753 73.2736 292.999 73.9963C292.285 74.6397 291.336 74.9857 290.358 74.9586C289.886 74.9691 289.417 74.8894 288.977 74.7242C288.537 74.559 288.136 74.3116 287.796 73.9963C287.042 73.2736 286.928 72.443 286.928 71.4408V66.9207L288.819 66.9107Z" fill="white"/>
<path d="M298.73 67.8212C299.012 67.4669 299.377 67.1816 299.796 66.9884C300.214 66.7952 300.674 66.6995 301.138 66.7091C303.276 66.7091 305.085 68.2624 305.085 70.8019C305.085 72.9502 303.662 74.9487 301.157 74.9487C300.696 74.9562 300.239 74.8654 299.819 74.6827C299.399 74.5001 299.027 74.2302 298.728 73.8925V74.7071H296.838V61.2087H298.728L298.73 67.8212ZM298.612 70.8578C298.612 72.485 299.711 73.3195 300.897 73.3195C302.266 73.3195 303.151 72.1895 303.151 70.8399C303.151 69.4423 302.266 68.3382 300.897 68.3382C299.711 68.3382 298.612 69.1508 298.612 70.8578Z" fill="white"/>
<path d="M314.906 72.9322C314.574 73.5054 314.105 73.9941 313.537 74.3577C312.815 74.769 311.988 74.9766 311.15 74.9566C310.071 74.9566 309.182 74.6971 308.414 73.9584C308.02 73.5618 307.712 73.0946 307.507 72.5835C307.301 72.0723 307.203 71.5273 307.217 70.9796C307.197 69.7898 307.66 68.6395 308.509 67.7732C308.863 67.4291 309.287 67.1581 309.754 66.9768C310.22 66.7956 310.721 66.7078 311.224 66.7191C311.708 66.7062 312.189 66.7899 312.637 66.9648C313.085 67.1398 313.49 67.4021 313.828 67.7353C314.866 68.7734 314.964 70.2169 314.964 71.0315V71.2411H309.147C309.187 71.8258 309.431 72.3803 309.841 72.8144C310.035 72.9885 310.264 73.1226 310.514 73.2084C310.764 73.2943 311.03 73.33 311.295 73.3135C311.759 73.333 312.215 73.196 312.585 72.9262C312.893 72.6923 313.148 72.4018 313.337 72.0717L314.906 72.9322ZM313.036 69.7637C312.966 69.3615 312.763 68.9918 312.456 68.7096C312.091 68.4119 311.624 68.2531 311.145 68.2631C310.666 68.273 310.207 68.451 309.855 68.7635C309.569 69.0377 309.368 69.3835 309.276 69.7617L313.036 69.7637Z" fill="white"/>
<path d="M324.896 62.3568V72.9382H328.675V74.7131H322.933V62.3568H324.896Z" fill="white"/>
<path d="M331.709 62.5245C331.948 62.5245 332.183 62.5929 332.383 62.721C332.582 62.8491 332.738 63.0312 332.829 63.2442C332.921 63.4573 332.945 63.6917 332.898 63.9179C332.852 64.1441 332.736 64.3518 332.566 64.5149C332.397 64.6779 332.181 64.789 331.945 64.834C331.71 64.879 331.466 64.8559 331.244 64.7676C331.023 64.6794 330.833 64.53 330.7 64.3382C330.566 64.1465 330.495 63.9211 330.495 63.6904C330.492 63.5364 330.52 63.3832 330.58 63.2401C330.64 63.097 330.729 62.9671 330.842 62.8581C330.956 62.7491 331.091 62.6633 331.24 62.606C331.389 62.5487 331.548 62.5209 331.709 62.5245ZM332.652 66.9168V74.7031H330.763V66.9168H332.652Z" fill="white"/>
<path d="M336.678 66.9107L338.755 71.3569L340.833 66.9107H342.954L338.755 75.2641L334.553 66.9107H336.678Z" fill="white"/>
<path d="M352.107 72.9322C351.777 73.5053 351.308 73.9941 350.74 74.3577C350.019 74.7691 349.192 74.9767 348.353 74.9567C347.273 74.9567 346.386 74.6971 345.617 73.9584C345.223 73.5622 344.915 73.0951 344.709 72.5839C344.503 72.0727 344.405 71.5275 344.419 70.9796C344.399 69.79 344.863 68.64 345.711 67.7732C346.065 67.4292 346.489 67.1582 346.956 66.977C347.424 66.7957 347.924 66.7079 348.428 66.7191C348.911 66.7064 349.392 66.7902 349.84 66.9651C350.287 67.14 350.692 67.4023 351.029 67.7353C352.068 68.7735 352.168 70.217 352.168 71.0315V71.2412H346.351C346.389 71.8261 346.634 72.381 347.045 72.8144C347.239 72.9887 347.468 73.123 347.718 73.2088C347.968 73.2947 348.234 73.3303 348.499 73.3135C348.962 73.3334 349.418 73.1963 349.787 72.9262C350.095 72.6924 350.351 72.4019 350.541 72.0717L352.107 72.9322ZM350.238 69.7638C350.168 69.3617 349.966 68.992 349.66 68.7096C349.294 68.4118 348.827 68.2529 348.348 68.2629C347.869 68.2728 347.409 68.4508 347.057 68.7635C346.771 69.0379 346.571 69.3837 346.48 69.7618L350.238 69.7638Z" fill="white"/>
<path d="M62.9696 45.1949C64.3117 45.5303 64.6213 45.6461 64.6213 45.8517C64.6213 45.9815 64.4987 46.0514 64.1247 46.0833C63.1961 48.4791 62.0992 49.9885 60.1941 51.4739C59.9463 51.1412 59.6312 50.86 59.2675 50.6473C60.8641 49.4789 62.0719 47.8888 62.7432 46.0713C62.8542 45.7888 62.9303 45.4946 62.9696 45.1949ZM69.8628 56.0479C69.6239 55.6346 69.3663 55.2493 69.1274 54.8879C66.3767 55.1694 63.7757 55.3231 61.1456 55.4529C61.0667 55.8003 60.9379 55.9061 60.8091 55.9061C60.6013 55.9061 60.4746 55.7244 60.1546 54.2311C60.5037 54.255 60.8381 54.281 61.1581 54.281C61.6151 54.281 62.1116 54.281 62.6476 54.269C63.1815 52.9563 63.6168 51.6085 63.9502 50.236C64.0425 49.8762 64.0968 49.5083 64.1123 49.138C65.5665 49.5113 65.8553 49.667 65.8553 49.8467C65.8553 50.0264 65.7452 50.0803 65.3193 50.1302C64.9516 51.5261 64.4852 52.8962 63.9232 54.2311C64.8352 54.2171 65.7452 54.1512 66.6572 54.1013C67.2618 54.0633 67.8642 54.0214 68.4688 53.9715C67.9384 53.2666 67.3559 52.5994 66.7258 51.975L67.7063 51.3181C68.9491 52.5147 70.0429 53.846 70.9659 55.2852L69.8628 56.0479ZM67.5588 44.6418C68.5976 47.2952 69.6633 48.7367 72.0234 50.3498C71.6399 50.6266 71.3011 50.9562 71.0179 51.3281C68.7098 49.6151 67.5318 47.9001 66.4038 44.9892L67.5588 44.6418Z" fill="white"/>
<path d="M83.5805 54.5405C84.1871 52.4881 84.5881 50.8649 84.8582 49.5612C84.9634 49.109 85.0171 48.647 85.0181 48.1836C86.5472 48.4811 86.8526 48.5989 86.8526 48.8285C86.8526 48.9842 86.6947 49.0601 86.3477 49.114C85.9156 50.9108 85.4336 52.6558 84.8312 54.5405H86.8276L88.9758 54.4866V55.6685L86.8276 55.6166H78.848L76.6874 55.6685V54.4826L78.848 54.5365L83.5805 54.5405ZM82.1263 45.4923C82.1337 45.1156 82.0975 44.7393 82.0182 44.3703C83.4953 44.4082 83.8049 44.4981 83.8049 44.6917C83.8049 44.8215 83.7093 44.9093 83.3894 44.9752V46.5724H86.0901L88.2383 46.5225V47.6945L86.0901 47.6446H79.546L77.3854 47.6945V46.5225L79.546 46.5724H82.12L82.1263 45.4923ZM80.1547 48.5689C80.8369 50.1494 81.3716 51.785 81.7523 53.4564L80.4622 53.8956C80.1291 52.2124 79.6167 50.5666 78.9332 48.9842L80.1547 48.5689Z" fill="white"/>
<path d="M95.4804 55.7763C95.0581 54.4398 94.8548 53.0482 94.8779 51.6515C94.8991 49.6514 95.1683 47.6608 95.6798 45.7219C95.4139 45.5423 95.3184 45.4544 95.3184 45.3745C95.3184 45.2947 95.3869 45.2328 95.576 45.2328C95.765 45.2328 96.1244 45.2867 97.0884 45.5423C96.4464 47.8243 96.1639 49.667 96.1639 51.5318C96.1487 52.8719 96.347 54.2063 96.7518 55.4888L95.4804 55.7763ZM97.855 47.6945C98.5509 47.7324 99.463 47.7604 100.068 47.7604C100.672 47.7604 101.073 47.7604 101.624 47.7324C101.624 47.1914 101.597 46.4467 101.597 45.9016C101.248 45.7718 101.127 45.658 101.127 45.5542C101.127 45.4504 101.206 45.3865 101.528 45.3865C101.771 45.3865 102.255 45.4005 102.895 45.4244C102.883 45.7878 102.883 46.1731 102.883 46.5345V47.6685C103.566 47.6306 104.337 47.5647 105.149 47.4689L105.162 48.6149C104.387 48.6907 103.637 48.7446 102.895 48.7826C102.91 50.4457 102.978 51.8113 103.018 52.8534C103.858 53.296 104.673 53.7825 105.459 54.3109L104.669 55.383C104.099 54.9028 103.492 54.4631 102.856 54.0673C102.413 54.9937 101.528 55.4329 100.363 55.4329C98.927 55.4329 97.8695 54.7501 97.8695 53.8078C97.8695 52.9074 99.0246 52.0289 100.232 52.0289C100.747 52.0359 101.257 52.1369 101.734 52.3264C101.692 51.1664 101.665 50.0603 101.626 48.8465C101.002 48.8584 100.352 48.8724 99.7871 48.8724C99.0641 48.8724 98.4762 48.8584 97.8571 48.8465L97.855 47.6945ZM100.173 53.0451C99.6229 53.0451 99.035 53.3805 99.035 53.7778C99.035 54.1751 99.544 54.4227 100.186 54.4227C100.953 54.4227 101.555 54.1132 101.703 53.4684C101.236 53.2055 100.708 53.06 100.167 53.0451H100.173Z" fill="white"/>
<path d="M113.555 51.2762C113.19 51.6463 112.979 52.1322 112.962 52.6418C112.962 53.4024 113.808 53.8277 116.409 53.8277C117.788 53.8337 119.165 53.7295 120.527 53.5162L120.595 54.8199C119.218 55.0006 117.83 55.0873 116.44 55.0795C113.05 55.0795 111.662 54.3168 111.662 52.7216C111.695 51.9802 111.967 51.2671 112.441 50.6812L113.555 51.2762ZM112.854 46.3648C113.351 46.3528 113.848 46.3388 114.344 46.3388C116.076 46.3444 117.806 46.4692 119.519 46.7122L119.388 47.926C117.689 47.6674 115.971 47.5339 114.251 47.5267C113.821 47.5267 113.285 47.5387 112.761 47.5766L112.854 46.3648Z" fill="white"/>
<path d="M126.94 47.4829C127.859 47.4838 128.777 47.4405 129.691 47.3531C129.851 46.7082 129.957 46.1172 130.04 45.5363C129.703 45.3805 129.583 45.2807 129.583 45.1749C129.583 45.0691 129.651 45.0072 129.89 45.0072C130.098 45.0072 130.64 45.0451 131.486 45.125C131.311 46.0254 131.18 46.5545 131.018 47.2373C131.586 47.1772 132.149 47.0831 132.705 46.9558L132.88 48.1397C132.196 48.2415 131.581 48.3214 130.79 48.4112C130.187 50.895 129.424 53.3402 128.504 55.7324L127.202 55.3331C128.122 53.1267 128.87 50.8578 129.441 48.545C128.639 48.6109 127.833 48.6488 126.963 48.6748L126.94 47.4829ZM133.137 52.3284C133.071 52.6298 133.034 52.9367 133.029 53.2448C133.029 53.9914 133.486 54.2869 135.04 54.2869C135.937 54.286 136.833 54.2387 137.724 54.1452L137.818 55.385C136.758 55.4728 135.886 55.4988 135.055 55.4988C132.769 55.4988 131.808 54.8559 131.808 53.3865C131.809 52.9691 131.863 52.5534 131.97 52.1487L133.137 52.3284ZM133.459 47.8802C134.879 47.8669 136.297 47.9664 137.699 48.1776L137.55 49.3895C136.183 49.1519 134.796 49.035 133.407 49.0401L133.459 47.8802ZM136.008 44.8155C136.762 45.3667 137.423 46.0275 137.965 46.7741L137.28 47.3531C136.742 46.5813 136.083 45.8949 135.325 45.3186L136.008 44.8155ZM137.346 43.9231C138.056 44.4448 138.68 45.066 139.197 45.7659L138.541 46.3109C138.032 45.5964 137.408 44.9648 136.692 44.4402L137.346 43.9231Z" fill="white"/>
<path d="M154.365 47.2172C152.474 47.333 151.664 47.6685 150.918 48.1835C150.356 48.5401 149.895 49.0243 149.574 49.5934C149.253 50.1624 149.084 50.7987 149.08 51.4458C149.08 53.3146 150.409 54.1631 153.347 54.1631C153.522 54.1631 153.657 54.1511 153.912 54.1391L153.868 55.4907H153.534C149.711 55.4907 147.796 54.1132 147.796 51.5337C147.796 50.2739 148.317 49.1758 149.286 48.2355C149.603 47.9923 149.939 47.7721 150.291 47.5766L150.262 47.5267L148.988 47.7862C147.634 47.9859 145.93 48.2215 144.418 48.4431L144.191 47.2053C147.503 46.8559 150.588 46.4586 154.163 45.9275L154.284 45.9934L154.446 47.1154L154.365 47.2172Z" fill="white"/>
<path d="M165.758 51.4578C164.551 53.0291 163.009 54.2529 160.865 55.2352C160.675 54.9 160.425 54.5988 160.128 54.3448C162.124 53.5342 163.602 52.4121 165.008 50.6452H162.419L160.259 50.6972V49.5612L162.419 49.6031H165.719V47.4828H163.452L161.291 47.5327V46.4107L163.452 46.4526H165.719V45.5602C165.716 45.1628 165.676 44.7665 165.598 44.3762C167.052 44.4002 167.37 44.4801 167.37 44.6717C167.37 44.8015 167.262 44.8714 166.926 44.9692V46.4526H169.313L171.475 46.4107V47.5327L169.313 47.4828H166.926V49.6091H170.32L172.481 49.5671V50.7032L170.32 50.6512H167.584C168.978 52.2484 170.574 53.2307 172.83 53.9774C172.539 54.3182 172.29 54.6908 172.09 55.0875C169.676 54.1571 168.172 53.051 166.896 51.348L166.992 56.3393H165.677L165.758 51.4578Z" fill="white"/>
<path d="M183.429 51.987C182.222 53.4684 180.641 54.6283 178.522 55.5966C178.297 55.2426 178.026 54.9173 177.716 54.6283C179.931 53.7918 181.445 52.7237 182.854 51.0186H180.078L177.918 51.0725V49.9765L180.078 50.0144H183.39V47.0616H180.575L178.414 47.1155V46.0314L180.575 46.0693H183.39V45.5542C183.386 45.157 183.346 44.7609 183.271 44.3703C184.726 44.3943 185.041 44.4741 185.041 44.6658C185.041 44.7956 184.931 44.8654 184.597 44.9633V46.0693H187.505L189.666 46.0314V47.1155L187.505 47.0616H184.605V50.0144H187.991L190.152 49.9765V51.0765L187.991 51.0226H185.145C186.599 52.6977 188.151 53.666 190.501 54.4167C190.209 54.7575 189.96 55.1301 189.759 55.5268C187.441 54.6463 185.899 53.5921 184.566 51.8751L184.661 56.3353H183.338L183.429 51.987ZM180.71 47.2832C181.264 47.8314 181.742 48.4469 182.131 49.114L181.092 49.7708C180.737 49.076 180.281 48.4333 179.738 47.8622L180.71 47.2832ZM186.998 49.7968C186.699 49.5819 186.37 49.4086 186.02 49.2817C186.421 48.8427 186.769 48.3619 187.059 47.8482C187.167 47.6602 187.247 47.4586 187.298 47.2492C188.654 47.7923 188.706 47.8302 188.706 48.0478C188.706 48.1776 188.571 48.2575 188.222 48.2575C187.858 48.8017 187.449 49.3165 186.998 49.7968Z" fill="white"/>
<path d="M202.166 48.6806C202.997 51.6195 204.848 53.592 207.908 55.0994C207.532 55.4213 207.203 55.7899 206.928 56.1955C204.217 54.752 202.528 52.8673 201.603 50.3677C201.414 51.3195 201.063 52.2349 200.564 53.0769C199.927 54.0669 199.053 54.8964 198.015 55.4967C197.413 55.8335 196.789 56.1317 196.146 56.3891C195.916 56.031 195.621 55.7158 195.275 55.4587C198.695 54.2109 200.276 52.3781 200.639 48.6706H198.049L195.763 48.7205V47.5346L198.049 47.5885H200.706C200.718 47.305 200.731 47.0195 200.731 46.736V45.8096C200.746 45.368 200.705 44.9263 200.61 44.494C202.179 44.5578 202.422 44.6077 202.422 44.8294C202.422 44.9711 202.314 45.047 201.992 45.1388V46.736C201.992 47.0335 201.992 47.317 201.977 47.5885H205.212L207.497 47.5346V48.7205L205.212 48.6706L202.166 48.6806Z" fill="white"/>
<path d="M222.891 51.8751L225.035 51.8252V52.9592L222.891 52.9093H219.607V53.3326L219.646 54.9697C219.646 55.95 219.202 56.2834 217.776 56.2834H217.014C216.905 55.8256 216.724 55.3866 216.476 54.9817C216.993 55.0467 217.513 55.082 218.034 55.0875C218.327 55.0875 218.396 55.0615 218.396 54.8279V52.9093H215.113L212.965 52.9592V51.8252L215.113 51.8751H218.385V51.7234C218.388 51.3878 218.352 51.053 218.277 50.7251C218.485 50.7371 218.666 50.767 218.84 50.779C219.418 50.484 219.973 50.1504 220.502 49.7808H217.097L215.072 49.8307V48.7206L217.097 48.7745H221.47L221.832 48.4651H222.021C222.931 49.2357 223.06 49.4633 223.06 49.651C223.06 49.8387 222.885 49.8806 222.337 49.9724C221.558 50.4256 220.82 50.811 220.026 51.1843C220.001 51.2881 219.879 51.35 219.611 51.4179V51.8751H222.891ZM220.905 46.7321C221.263 46.2304 221.586 45.7062 221.871 45.1629C222.002 44.9115 222.106 44.6479 222.181 44.3762C223.575 44.8654 223.749 44.9752 223.749 45.1748C223.749 45.3166 223.602 45.3745 223.253 45.3745C222.958 45.8516 222.665 46.2909 222.328 46.7381H222.771L224.769 46.6882L224.836 46.7521L224.782 48.2095L224.848 49.7409H223.589V47.7563H214.361V49.7947H213.1L213.167 48.2095L213.115 46.7521L213.179 46.6882L215.18 46.7381L220.905 46.7321ZM215.394 44.4661C215.892 44.9079 216.321 45.4162 216.669 45.9754L215.593 46.6562C215.259 46.0766 214.845 45.5434 214.361 45.071L215.394 44.4661ZM218.801 44.3243C219.246 44.8184 219.625 45.3644 219.929 45.9495L218.786 46.5285C218.508 45.927 218.147 45.3637 217.714 44.8534L218.801 44.3243Z" fill="white"/>
<path d="M60.728 67.2482C60.6755 68.6189 60.5235 69.9845 60.2731 71.335L59.2343 71.0894C59.4871 69.7705 59.6447 68.4363 59.7059 67.0964L60.728 67.2482ZM62.8325 67.1862C63.2606 67.6328 63.6387 68.1213 63.9606 68.6437L63.0486 69.2207C62.8236 68.7513 62.5397 68.3101 62.2031 67.907V75.2541L62.2571 77.3285H60.9711L61.023 75.2541V66.194C61.0269 65.8761 60.9864 65.5592 60.9025 65.2516C62.417 65.3315 62.631 65.3695 62.631 65.611C62.631 65.7408 62.5126 65.8107 62.2031 65.8845V67.5975L62.8325 67.1862ZM66.9356 66.2179C66.9393 65.9009 66.8995 65.5847 66.8172 65.2776C68.3171 65.3934 68.5353 65.4313 68.5353 65.6769C68.5353 65.8027 68.4127 65.8766 68.1032 65.9584V66.6692H69.4057L71.5497 66.6272V67.5436L69.4057 67.5057H68.1032V68.1506H68.7887L70.6792 68.1106V69.0131L68.7887 68.9751H68.1032V69.6719H69.6987L71.8593 69.634V70.5464L69.6987 70.5084H65.2321L63.0756 70.5464V69.644L65.2321 69.6819H66.9356V68.9851H66.3477L64.4571 69.023V68.1206L66.3477 68.1605H66.9356V67.5157H65.8636L63.7196 67.5536V66.6372L65.8636 66.6792H66.9356V66.2179ZM65.5811 75.1503V77.2526H64.374L64.4301 75.1882V72.7385L64.374 71.1932L64.4426 71.1293L66.0381 71.1813H69.0027L70.6003 71.1293L70.6668 71.1932L70.6128 72.7385V74.5354L70.6522 76.0308C70.6522 76.8833 70.2908 77.1648 69.1627 77.1648H68.6267C68.5071 76.7535 68.331 76.3594 68.1032 75.9928C68.4771 76.0419 68.8539 76.0679 69.2312 76.0707C69.4203 76.0707 69.439 76.0427 69.439 75.8371V75.1543L65.5811 75.1503ZM69.4452 72.0977H65.5811V72.7545H69.4452V72.0977ZM69.4452 73.605H65.5811V74.2998H69.4452V73.605Z" fill="white"/>
<path d="M82.2986 66.2121C82.3025 65.8941 82.2613 65.577 82.1761 65.2697C83.6656 65.3995 83.9066 65.4374 83.9066 65.685C83.9066 65.8108 83.7882 65.8846 83.4787 65.9525V66.831H83.5721L85.5977 66.791V67.8472L83.5721 67.8053H83.4932V68.9393H84.0146L86.0402 68.9014V69.9335L84.0417 69.8956H81.7232L79.7225 69.9455V68.9014L81.7502 68.9393H82.2986V67.8053H82.2467L80.2191 67.8472V66.801L82.2467 66.841H82.2986V66.2121ZM81.3866 71.5088C81.2887 71.1004 81.1582 70.6999 80.996 70.3109L81.9891 70.0134C82.186 70.5041 82.3429 71.0087 82.4586 71.5228H83.5576C83.6532 71.1874 83.7196 70.8899 83.7653 70.6084C83.8017 70.399 83.8232 70.1876 83.8297 69.9755C85.0368 70.3109 85.1593 70.3748 85.1593 70.5425C85.1593 70.6723 85.1033 70.7222 84.7688 70.826C84.7023 71.0576 84.6358 71.2792 84.561 71.5088L85.9426 71.4848V72.515L83.917 72.4771H83.462V73.6371H83.5555L85.5811 73.5991V74.6353L83.5555 74.5974H83.462V75.4479L83.516 77.2647H82.2467L82.2986 75.4479V74.5974H82.2467L80.2191 74.6353V73.5931L82.2467 73.6311H82.2986V72.4711H81.854L79.8326 72.509V71.4788L81.3866 71.5088ZM90.5463 70.3868L90.8434 70.1033H91.0033C91.9673 70.852 92.0421 70.9278 92.0421 71.1354C92.0421 71.2792 91.932 71.367 91.5061 71.4968C91.236 72.9403 90.8995 74.0084 90.3385 74.9268C90.8977 75.4641 91.5631 75.8883 92.2956 76.1746C92.0042 76.4563 91.7641 76.783 91.585 77.1409C90.8956 76.7633 90.2659 76.2926 89.7153 75.7434C89.2556 76.2563 88.7379 76.7183 88.1717 77.1209C87.9947 76.836 87.7733 76.5788 87.5152 76.3583L87.5443 77.2767H86.2687L86.3207 75.2283V67.5697L86.2687 65.9445L86.3331 65.8827L88.0242 65.9326H89.6364L91.3254 65.8827L91.3918 65.9445L91.3399 67.1045V67.8472L91.3794 68.6977C91.3794 69.5462 90.9909 69.8317 89.6613 69.8317H89.1398C89.0761 69.4291 88.939 69.0405 88.7347 68.6837C89.1491 68.7211 89.5651 68.7384 89.9812 68.7356C90.1433 68.7356 90.189 68.6718 90.189 68.4921V66.8949H87.4882V70.3987L90.5463 70.3868ZM87.4882 75.2343L87.5152 76.2764C88.0863 75.8942 88.5964 75.4342 89.0297 74.9108C88.4813 74.0983 88.1198 73.114 87.8227 71.8163L88.7783 71.5208C88.9431 72.3759 89.2319 73.2045 89.6364 73.9825C90.0418 73.1464 90.2867 72.2469 90.3593 71.3271H87.4882V75.2343Z" fill="white"/>
<path d="M106.873 71.3549C106.873 74.1899 105.544 75.6334 102.702 76.6516C102.505 76.243 102.227 75.8753 101.883 75.5695C104.459 74.705 105.452 73.7906 105.452 71.3769V71.0934H102.702L100.514 71.1333V69.8815L102.702 69.9334H108.685L110.868 69.8815V71.1333L108.685 71.0934H106.873V71.3549ZM104.135 67.1123H106.819L109.007 67.0624V68.3003L106.819 68.2603H104.135L101.966 68.3003V67.0624L104.135 67.1123ZM109.312 65.7467C110.067 66.2996 110.728 66.9609 111.274 67.7073L110.588 68.2863C110.048 67.5146 109.387 66.8277 108.629 66.2498L109.312 65.7467ZM110.646 64.8523C111.355 65.3745 111.979 65.9956 112.497 66.6951L111.841 67.2361C111.332 66.5218 110.706 65.8914 109.988 65.3694L110.646 64.8523Z" fill="white"/>
<path d="M121.865 70.1032L119.694 70.1431V68.8913L121.865 68.9432H122.523V66.9706C122.174 66.771 122.095 66.6891 122.095 66.5853C122.095 66.4815 122.174 66.4176 122.43 66.4176C122.685 66.4176 123.005 66.4675 123.986 66.7151L123.865 67.4598V68.9432H126.95V66.8189C126.601 66.6193 126.518 66.5354 126.518 66.4296C126.518 66.3238 126.601 66.2619 126.855 66.2619C127.108 66.2619 127.459 66.3298 128.452 66.5474L128.33 67.2921V68.9432H128.801L130.972 68.8913V70.1431L128.801 70.1032H128.33V70.5025C128.33 74.1101 127.162 75.7473 123.219 76.6118C123.092 76.1932 122.881 75.803 122.596 75.4638C126.082 74.8069 126.959 73.7468 126.959 70.5144V70.1151H123.863V70.8419L123.915 72.9302H122.461L122.515 70.8419V70.1052L121.865 70.1032ZM129.344 65.3754C129.896 66.0884 130.338 66.8737 130.659 67.7074L129.84 68.0667C129.529 67.2138 129.095 66.4073 128.55 65.6709L129.344 65.3754ZM130.86 64.8723C131.39 65.5389 131.81 66.2795 132.107 67.0685L131.313 67.4159C131.026 66.6155 130.61 65.8636 130.079 65.1878L130.86 64.8723Z" fill="white"/>
<path d="M147.545 67.7453C146.798 68.4995 145.997 69.2008 145.145 69.8436C145.388 69.9055 145.615 69.9594 145.816 70.0233L145.75 70.9776V74.4356L145.802 76.5339H144.316L144.368 74.4475V70.4785L144.316 70.4246C142.884 71.4004 141.347 72.2257 139.731 72.8863C139.485 72.4985 139.177 72.1507 138.817 71.8561C141.85 70.6342 144.96 68.7256 146.734 66.5853C146.543 66.4056 146.477 66.2878 146.477 66.212C146.477 66.1361 146.529 66.0323 146.684 66.0323C146.871 66.0323 147.114 66.1082 148.322 66.9587L147.545 67.7453Z" fill="white"/>
<path d="M158.786 67.2043C160.119 67.7113 161.403 68.332 162.621 69.059L161.871 70.207C160.677 69.4393 159.405 68.7911 158.073 68.2724L158.786 67.2043ZM158.973 76.2005C158.57 75.2023 158.395 74.759 158.395 74.6033C158.395 74.4476 158.451 74.4037 158.57 74.4037C158.688 74.4037 158.778 74.4696 159.052 74.7131C163.223 73.5272 165.436 71.4548 166.805 67.925C167.125 68.2794 167.496 68.588 167.906 68.8414C166.282 72.5389 163.88 74.5115 159.858 75.8771L158.973 76.2005Z" fill="white"/>
<path d="M185.997 75.0525L185.916 75.1184L183.824 75.0685H179.532L177.371 75.1184V73.8546L179.532 73.8926H184.547V69.073H179.654L177.494 69.1109V67.8472L179.654 67.8971H183.824L185.916 67.8472L185.997 67.911L185.941 69.9495V73.0141L185.997 75.0525Z" fill="white"/>
<path d="M195.77 72.0877V70.7101L197.955 70.776H203.751L205.937 70.7101V72.0877L203.751 72.0378H197.955L195.77 72.0877Z" fill="white"/>
<path d="M221.707 66.9707C222.7 67.8611 222.746 67.925 222.746 68.1047C222.746 68.2484 222.679 68.3383 222.262 68.5819C221.833 69.6657 221.227 70.6767 220.467 71.5766C221.816 72.6864 223.067 73.9017 224.206 75.2102L223.13 76.1286C222.076 74.8304 220.901 73.6275 219.619 72.5349C218.103 74.1481 216.669 75.1523 214.548 76.1965C214.314 75.8012 213.999 75.455 213.624 75.1783C216.883 73.7328 219.441 71.4548 220.799 68.4361H216.744L214.571 68.478V67.2122L216.744 67.2642H221.119L221.52 66.9667L221.707 66.9707Z" fill="white"/>
<path d="M235.157 45.5382V77.7857" stroke="white" stroke-miterlimit="10"/>
<defs>
<clipPath id="clip0_413_573">
<rect width="53" height="77" fill="white"/>
</clipPath>
</defs>
</svg>
