<svg width="594" height="363" viewBox="0 0 594 363" fill="none" xmlns="http://www.w3.org/2000/svg">
<g clip-path="url(#clip0_413_148)">
<path d="M145.982 558.997C219.17 519.863 255.821 545.452 329.007 506.312C402.193 467.173 365.561 441.593 438.744 402.444C511.926 363.296 548.645 388.867 621.768 349.759C694.891 310.651 658.322 285.04 731.493 245.863C804.664 206.686 841.332 232.317 914.531 193.172C987.73 154.028 951.072 128.458 1024.27 89.3043C1097.46 50.1503 1134.09 75.7638 1207.29 36.6191C1280.49 -2.52549 1243.85 -28.1002 1317.02 -67.277C1390.19 -106.454 1426.92 -80.8494 1500.04 -119.962" stroke="#CE125F" stroke-width="0.5" stroke-miterlimit="10"/>
<path d="M144.619 556.96C175.788 540.289 200.515 535.781 224.282 532.309C249.378 528.629 272.188 526.868 301.618 515.536C310.717 512.02 319.623 507.983 328.01 503.573C348.028 493.074 360.05 483.641 368.413 474.36C382.307 458.909 384.848 444.668 398.723 429.208C407.082 419.918 419.106 410.489 439.159 399.965C447.537 395.559 456.436 391.525 465.525 388.013C494.968 376.676 517.769 374.891 542.877 371.206C566.641 367.725 591.281 363.263 622.541 346.554C695.229 307.684 658.59 282.085 731.278 243.215C803.966 204.344 840.604 229.938 913.305 191.063C986.006 152.187 949.278 126.63 1022.03 87.7331C1058.7 68.1269 1086.3 65.1912 1113.98 61.5129C1141.66 57.8346 1168.11 54.0979 1204.73 34.513C1241.35 14.928 1250.96 -0.625422 1260.6 -16.9002C1270.24 -33.1749 1278.66 -49.5034 1315.33 -69.1143C1351.99 -88.7253 1379.6 -91.6563 1407.26 -95.3292C1434.93 -99.0022 1461.39 -102.744 1498.01 -122.329" stroke="#CE125F" stroke-width="0.5" stroke-miterlimit="10"/>
<path d="M143.245 554.933C174.625 538.148 199.501 534.154 223.533 530.361C248.894 526.403 270.754 524.247 300.372 512.745C309.509 509.205 318.473 505.192 326.994 500.825C347.156 490.492 359.322 481.3 367.998 471.93C382.321 456.375 384.222 441.947 398.545 426.391C407.219 417.017 419.395 407.811 439.556 397.478C448.08 393.113 457.043 389.099 466.179 385.558C495.81 374.05 517.67 371.894 543.031 367.936C567.063 364.144 591.931 360.168 623.306 343.369C695.497 304.768 658.859 279.174 731.048 240.567C803.236 201.961 839.889 227.555 912.012 188.975C984.136 150.395 947.552 124.785 1019.74 86.1785C1056.48 66.531 1084.23 64.0522 1112.12 60.0788C1140.01 56.1053 1165.46 52.0338 1202.19 32.3869C1238.92 12.74 1248.87 -2.11186 1259.07 -18.5007C1269.27 -34.8896 1276.92 -51.3482 1313.66 -70.9957C1350.4 -90.6432 1378.13 -93.1168 1406.03 -97.0902C1433.92 -101.064 1459.37 -105.135 1496.11 -124.783" stroke="#CE125F" stroke-width="0.5" stroke-miterlimit="10"/>
<path d="M141.881 552.896C173.425 536.028 198.472 532.527 222.794 528.441C248.403 524.196 269.329 521.687 299.127 509.992C308.311 506.42 317.341 502.424 326.003 498.099C346.252 487.944 358.619 478.983 367.582 469.534C382.348 453.874 383.628 439.262 398.371 423.584C407.332 414.131 419.71 405.159 439.97 394.994C448.624 390.675 457.647 386.684 466.823 383.117C496.631 371.411 517.557 368.903 543.181 364.657C567.494 360.586 592.556 357.084 624.092 340.197C695.783 301.86 659.132 276.271 730.823 237.934C802.514 199.597 839.164 225.185 910.861 186.862C982.557 148.539 945.899 122.931 1017.59 84.5942C1054.4 64.9154 1082.29 62.8834 1110.39 58.6248C1138.48 54.3662 1162.95 49.935 1199.76 30.2515C1236.56 10.568 1246.99 -3.65526 1257.63 -20.1151C1268.28 -36.575 1275.27 -53.1968 1312.05 -72.8696C1348.82 -92.5425 1376.75 -94.5804 1404.85 -98.8443C1432.96 -103.108 1457.41 -107.529 1494.21 -127.212" stroke="#CE125F" stroke-width="0.5" stroke-miterlimit="10"/>
<path d="M140.509 550.874C172.214 533.918 197.469 530.852 222.052 526.511C247.945 521.958 267.906 519.095 297.888 507.22C307.1 503.622 316.178 499.653 324.956 495.386C345.293 485.408 357.903 476.67 367.108 467.145C382.364 451.384 382.925 436.61 398.159 420.831C407.375 411.295 419.983 402.553 440.332 392.57C449.109 388.3 458.187 384.331 467.4 380.736C497.394 368.851 517.362 366.006 543.25 361.439C567.832 357.099 593.087 354.033 624.793 337.077C695.973 299.014 659.333 273.415 730.595 235.329C801.857 197.244 838.426 222.855 909.619 184.787C980.812 146.718 944.159 121.125 1015.36 83.0658C1052.23 63.341 1080.27 61.7657 1108.58 57.2166C1136.89 52.6676 1160.35 47.8875 1197.23 28.1674C1234.11 8.44733 1244.98 -5.13086 1256.11 -21.6783C1267.25 -38.2257 1273.53 -54.9941 1310.41 -74.7189C1347.29 -94.4436 1375.33 -96.0142 1403.64 -100.563C1431.95 -105.112 1455.42 -109.927 1492.34 -129.648" stroke="#CE125F" stroke-width="0.5" stroke-miterlimit="10"/>
<path d="M139.143 548.832C171 531.798 196.446 529.201 221.312 524.586C247.458 519.722 266.485 516.507 296.639 504.458C305.917 500.822 315.079 496.865 324.002 492.64C344.438 482.83 357.25 474.327 366.754 464.717C382.441 448.857 382.358 433.881 398.043 418.017C407.545 408.402 420.355 399.894 440.804 390.079C449.722 385.854 458.88 381.899 468.154 378.267C498.32 366.208 517.348 362.997 543.482 358.138C568.342 353.509 593.788 350.912 625.65 333.892C696.343 296.088 659.693 270.499 730.386 232.695C801.079 194.891 837.783 220.425 908.405 182.633C979.028 144.842 942.448 119.241 1013.14 81.4364C1050.1 61.6751 1078.27 60.552 1106.8 55.7124C1135.32 50.8729 1157.78 45.7485 1194.73 25.9872C1231.69 6.22586 1242.97 -6.69267 1254.61 -23.3277C1266.24 -39.9626 1271.81 -56.8924 1308.79 -76.6403C1345.77 -96.3882 1373.91 -97.5193 1402.45 -102.364C1430.98 -107.209 1453.43 -112.328 1490.38 -132.089" stroke="#CE125F" stroke-width="0.5" stroke-miterlimit="10"/>
<path d="M137.78 546.795C169.785 529.679 195.438 527.55 220.575 522.633C246.978 517.467 265.054 513.895 295.406 501.661C304.734 497.994 313.966 494.055 323.012 489.881C343.536 480.249 356.548 471.976 366.34 462.287C382.483 446.317 381.749 431.164 397.878 415.195C407.667 405.501 420.678 397.224 441.279 387.559C450.321 383.388 459.548 379.451 468.872 375.785C499.225 363.551 517.299 359.974 543.717 354.808C568.841 349.896 594.477 347.763 626.512 330.646C696.692 293.111 659.989 267.544 730.237 229.987C800.484 192.431 837.07 218.046 907.265 180.511C977.46 142.976 940.808 117.382 1011 79.847C1048.02 60.0497 1076.34 59.3834 1105.09 54.248C1133.84 49.1126 1155.28 43.6447 1192.31 23.8468C1229.34 4.0489 1241.04 -8.21928 1253.18 -24.9471C1265.33 -41.675 1270.18 -58.746 1307.24 -78.5646C1344.31 -98.3832 1372.59 -99.0335 1401.33 -104.164C1430.07 -109.294 1451.53 -114.772 1488.55 -134.565" stroke="#CE125F" stroke-width="0.5" stroke-miterlimit="10"/>
<path d="M136.406 544.768C168.585 527.558 194.416 525.904 219.818 520.704C246.453 515.252 263.616 511.303 294.153 498.89C303.046 495.259 312.293 491.604 322.002 487.147C342.612 477.688 355.867 469.638 365.904 459.882C382.491 443.808 381.121 428.471 397.693 412.397C407.769 402.625 420.982 394.582 441.617 385.112C451.313 380.661 460.555 376.992 469.453 373.375C499.99 360.962 517.127 357.024 543.802 351.556C569.203 346.356 595.034 344.701 627.201 327.497C696.898 290.231 660.246 264.637 729.943 227.371C799.641 190.105 836.277 215.694 905.922 178.449C975.567 141.204 938.967 115.589 1008.65 78.3235C1045.76 58.4843 1074.21 58.2702 1103.17 52.8638C1132.14 47.4573 1152.59 41.6251 1189.68 21.7865C1226.77 1.94797 1238.92 -9.66166 1251.58 -26.4683C1264.23 -43.275 1268.35 -60.5014 1305.44 -80.34C1342.53 -100.179 1371 -100.393 1399.96 -105.8C1428.93 -111.206 1449.38 -117.038 1486.47 -136.877" stroke="#CE125F" stroke-width="0.5" stroke-miterlimit="10"/>
<path d="M135.035 542.712C167.364 525.425 193.387 524.239 219.066 518.751C245.986 512.991 262.181 508.682 292.892 496.1C301.902 492.421 311.176 488.794 320.985 484.395C341.693 475.103 355.125 467.299 365.495 457.467C382.513 441.293 380.505 425.773 397.508 409.6C407.882 399.739 421.312 391.931 442.033 382.633C451.79 378.256 461.119 374.616 470.112 370.934C500.834 358.341 517.032 354.037 543.952 348.277C569.63 342.789 595.653 341.603 627.983 324.316C697.166 287.314 660.53 261.725 729.715 224.728C798.9 187.731 835.55 213.32 904.735 176.324C973.92 139.327 937.281 113.728 1006.47 76.7312C1043.63 56.856 1072.24 57.0934 1101.41 51.3777C1130.58 45.662 1150.03 39.4997 1187.19 19.6392C1224.35 -0.221259 1236.89 -11.1793 1250.07 -28.1082C1263.26 -45.0372 1266.63 -62.3802 1303.81 -82.2607C1340.99 -102.141 1369.57 -101.893 1398.75 -107.614C1427.94 -113.335 1447.37 -119.492 1484.53 -139.353" stroke="#CE125F" stroke-width="0.5" stroke-miterlimit="10"/>
<path d="M133.666 540.699C166.157 523.324 192.375 522.617 218.329 516.835C245.508 510.778 260.764 506.104 291.662 493.346C300.76 489.588 310.152 485.988 319.996 481.674C340.789 472.555 354.423 464.986 365.075 455.061C382.536 438.783 379.892 423.08 397.337 406.802C407.998 396.863 421.63 389.289 442.443 380.179C452.272 375.865 461.676 372.26 470.777 368.506C501.673 355.744 516.929 351.069 544.109 345.017C570.063 339.236 596.279 338.524 628.771 321.149C697.456 284.416 660.804 258.823 729.492 222.1C798.181 185.376 834.828 210.956 903.515 174.228C972.202 137.5 935.561 111.897 1004.25 75.1687C1041.49 55.257 1070.24 55.9465 1099.63 49.9403C1129.01 43.9341 1147.45 37.4275 1184.7 17.5111C1221.94 -2.40536 1234.94 -12.7102 1248.58 -29.7155C1262.22 -46.7207 1264.88 -64.2056 1302.16 -84.138C1339.44 -104.07 1368.15 -103.365 1397.52 -109.395C1426.9 -115.424 1445.37 -121.913 1482.59 -141.824" stroke="#CE125F" stroke-width="0.5" stroke-miterlimit="10"/>
<path d="M132.265 538.683C164.905 521.225 191.315 520.987 217.546 514.917C244.97 508.569 259.285 503.523 290.37 490.591C299.563 486.766 309.042 483.197 318.96 478.951C339.828 470.014 353.675 462.67 364.608 452.652C382.512 436.27 379.231 420.384 397.122 404.006C408.068 393.983 421.929 386.634 442.81 377.692C452.712 373.447 462.181 369.887 471.374 366.063C502.457 353.126 516.783 348.07 544.211 341.731C570.44 335.657 596.849 335.419 629.491 317.965C697.679 281.502 661.039 255.903 729.229 219.444C797.418 182.985 834.053 208.575 902.241 172.111C970.428 135.647 933.79 110.053 1001.98 73.5895C1039.28 53.6371 1068.18 54.7687 1097.78 48.4814C1127.39 42.1941 1144.82 35.3292 1182.14 15.3762C1219.46 -4.5768 1232.88 -14.2312 1247.02 -31.3294C1261.17 -48.4275 1263.21 -66.101 1300.46 -86.0274C1337.71 -105.954 1366.66 -104.848 1396.27 -111.136C1425.87 -117.423 1443.3 -124.288 1480.62 -144.241" stroke="#CE125F" stroke-width="0.5" stroke-miterlimit="10"/>
<path d="M130.941 536.63C163.745 519.089 190.333 519.325 216.839 512.962C244.51 506.327 257.899 500.91 289.173 487.807C298.458 483.912 308.015 480.382 317.993 476.21C338.958 467.437 353.011 460.336 364.236 450.216C382.571 433.734 378.655 417.67 396.988 401.183C408.22 391.081 422.27 383.972 443.244 375.184C453.222 371.012 462.777 367.477 472.064 363.587C503.334 350.475 516.71 345.063 544.398 338.432C570.904 332.069 597.507 332.304 630.311 314.764C697.998 278.564 661.296 252.997 729.035 216.776C796.775 180.555 833.362 206.175 901.052 169.981C968.741 133.786 932.037 108.214 999.791 71.9923C1037.2 51.9927 1066.21 53.5965 1096.01 47.01C1125.82 40.4235 1142.27 33.2178 1179.66 13.2235C1217.06 -6.77083 1230.91 -15.7662 1245.54 -32.9513C1260.17 -50.1363 1261.46 -67.9358 1298.85 -87.9301C1336.24 -107.924 1365.27 -106.326 1395.07 -112.912C1424.87 -119.499 1441.33 -126.705 1478.72 -146.699" stroke="#CE125F" stroke-width="0.5" stroke-miterlimit="10"/>
<path d="M129.565 534.598C162.53 516.969 189.313 517.684 216.095 511.028C244.038 504.09 256.472 498.307 287.916 485.026C297.309 481.06 306.941 477.565 316.992 473.461C338.045 464.866 352.311 457.99 363.82 447.819C382.596 431.229 378.045 414.985 396.808 398.4C408.33 388.224 422.594 381.344 443.658 372.738C453.697 368.64 463.341 365.14 472.72 361.174C504.164 347.893 516.587 342.12 544.541 335.172C571.324 328.521 598.119 329.226 631.071 311.602C698.261 275.672 661.623 250.078 728.8 214.153C795.977 178.227 832.642 203.815 899.793 167.901C966.943 131.986 930.382 106.356 997.561 70.4352C1034.96 50.4262 1064.2 52.4549 1094.23 45.5725C1124.26 38.6902 1139.69 31.1456 1177.15 11.1153C1214.6 -8.91493 1228.9 -17.2659 1244.04 -34.5391C1259.18 -51.8123 1259.74 -69.7625 1297.19 -89.7928C1334.64 -109.823 1363.83 -107.773 1393.86 -114.655C1423.89 -121.538 1439.32 -129.082 1476.78 -149.113" stroke="#CE125F" stroke-width="0.5" stroke-miterlimit="10"/>
<path d="M128.242 532.55C161.356 514.838 188.331 516.022 215.39 509.078C243.591 501.843 255.084 495.689 286.715 482.233C296.203 478.201 305.909 474.741 316.034 470.706C337.158 462.284 351.634 455.624 363.424 445.398C382.643 428.703 377.456 412.277 396.675 395.582C408.482 385.322 422.963 378.676 444.061 370.265C454.173 366.235 463.893 362.77 473.366 358.738C504.995 345.277 516.504 339.128 544.703 331.888C571.764 324.949 598.739 326.133 631.853 308.421C698.545 272.76 661.894 247.171 728.584 211.505C795.274 175.838 831.914 201.437 898.593 165.781C965.272 130.124 928.684 104.504 995.337 68.8588C1032.87 48.792 1062.19 51.294 1092.43 44.1212C1122.68 36.9484 1137.11 29.0549 1174.64 8.98807C1212.17 -11.0788 1226.89 -18.7747 1242.54 -36.1455C1258.18 -53.5163 1258.01 -71.6078 1295.54 -91.6747C1333.07 -111.741 1362.39 -109.244 1392.64 -116.412C1422.89 -123.58 1437.31 -131.479 1474.84 -151.545" stroke="#CE125F" stroke-width="0.5" stroke-miterlimit="10"/>
<path d="M126.84 530.529C160.117 512.734 187.272 514.397 214.607 507.16C243.053 499.633 253.618 493.104 285.422 479.478C295.003 475.375 304.8 471.949 314.985 467.988C336.195 459.739 350.894 453.327 362.989 442.993C382.644 426.213 376.827 409.584 396.477 392.79C408.57 382.452 423.269 376.04 444.49 367.781C454.675 363.819 464.459 360.399 474.028 356.268C505.848 342.642 516.412 336.112 544.859 328.585C572.193 321.349 599.349 323.011 632.626 305.217C698.818 269.819 662.167 244.231 728.36 208.833C794.552 173.436 831.191 199.035 897.383 163.637C963.576 128.24 926.925 102.651 993.104 67.259C1030.69 47.1562 1060.17 50.1098 1090.63 42.6465C1121.09 35.1832 1134.52 26.9167 1172.12 6.83731C1209.72 -13.242 1224.84 -20.301 1241.02 -37.7753C1257.2 -55.2496 1256.28 -73.4718 1293.88 -93.58C1331.49 -113.688 1360.95 -110.734 1391.4 -118.192C1421.84 -125.65 1435.29 -133.898 1472.9 -154.006" stroke="#CE125F" stroke-width="0.5" stroke-miterlimit="10"/>
<path d="M125.463 528.497C158.904 510.619 186.251 512.751 213.863 505.225C242.568 497.402 252.191 490.501 284.236 476.684C293.91 472.511 303.781 469.12 314.04 465.227C335.334 457.146 350.244 450.993 362.619 440.562C382.712 423.663 376.214 406.891 396.344 389.971C408.789 379.528 423.633 373.358 444.947 365.29C455.206 361.397 465.075 358.002 474.749 353.829C506.742 340.033 516.418 333.111 545.123 325.288C572.734 317.762 600.081 319.894 633.522 302.016C699.203 266.893 662.563 241.294 728.245 206.171C793.926 171.048 830.577 196.637 896.271 161.508C961.966 126.38 925.302 100.797 990.996 65.6681C1028.66 45.524 1058.28 48.9297 1088.94 41.1765C1119.6 33.4234 1132.06 24.8302 1169.74 4.68077C1207.41 -15.4686 1222.99 -21.8551 1239.63 -39.401C1256.27 -56.9469 1254.68 -75.3417 1292.35 -95.4811C1330.01 -115.62 1359.63 -112.219 1390.3 -119.973C1420.98 -127.727 1433.41 -136.319 1471.1 -156.469" stroke="#CE125F" stroke-width="0.5" stroke-miterlimit="10"/>
<path d="M124.102 526.464C157.689 508.499 185.231 511.109 213.118 503.291C242.069 495.176 250.759 487.923 282.931 473.934C292.71 469.684 302.618 466.345 312.991 462.509C334.356 454.602 349.476 448.664 362.158 438.167C382.681 421.169 375.624 404.182 396.12 387.19C408.8 376.689 423.918 370.746 445.31 362.833C455.63 359.014 465.575 355.654 475.343 351.414C507.536 337.438 516.218 330.167 545.168 322.051C573.055 314.233 600.597 316.843 634.198 298.873C699.381 264.019 662.692 238.446 727.926 203.566C793.159 168.686 829.746 194.306 894.945 159.451C960.143 124.596 923.437 99.019 988.673 64.1436C1026.41 43.9582 1056.17 47.8207 1087.05 39.7771C1117.92 31.7334 1129.37 22.7913 1167.11 2.61063C1204.85 -17.57 1220.86 -23.3067 1238.01 -40.9502C1255.15 -58.5937 1252.85 -77.1063 1290.58 -97.3058C1328.32 -117.505 1358.08 -113.629 1388.97 -121.678C1419.86 -129.727 1431.28 -138.658 1469.02 -158.839" stroke="#CE125F" stroke-width="0.5" stroke-miterlimit="10"/>
<path d="M122.726 524.433C156.477 506.384 184.21 509.463 212.374 501.357C241.585 492.949 249.324 485.302 281.691 471.157C291.565 466.841 301.587 463.521 311.981 459.775C333.431 452.041 348.767 446.332 361.735 435.757C382.701 418.65 374.996 401.489 395.95 384.392C408.928 373.802 424.237 368.104 445.726 360.354C456.121 356.608 466.141 353.283 476.015 348.967C508.382 334.822 516.122 327.18 545.331 318.767C573.509 310.655 601.229 313.74 634.98 295.692C699.664 261.102 663.026 235.508 727.712 200.922C792.398 166.337 829.047 191.921 893.717 157.336C958.388 122.752 921.751 97.1575 986.436 62.5722C1024.25 42.3502 1054.16 46.6596 1085.25 38.3255C1116.35 29.9914 1126.79 20.7049 1164.58 0.46487C1202.37 -19.7752 1218.84 -24.8441 1236.49 -42.5757C1254.15 -60.3074 1251.11 -78.9848 1288.93 -99.2067C1326.74 -119.429 1356.63 -115.119 1387.73 -123.448C1418.83 -131.777 1429.27 -141.069 1467.08 -161.291" stroke="#CE125F" stroke-width="0.5" stroke-miterlimit="10"/>
<path d="M121.362 522.395C155.277 504.264 183.191 507.822 211.63 499.423C241.086 490.723 247.897 482.7 280.438 468.386C290.406 464.004 300.511 460.737 310.975 457.012C332.509 449.446 348.048 443.977 361.304 433.323C382.699 416.117 374.372 398.772 395.768 381.566C409.033 370.897 424.572 365.428 446.119 357.857C456.588 354.179 466.685 350.894 476.643 346.489C509.184 332.174 515.995 324.151 545.451 315.452C573.917 307.042 601.819 310.61 635.732 292.474C699.918 258.152 663.265 232.559 727.451 198.238C791.638 163.917 828.288 189.506 892.472 155.18C956.656 120.854 920.006 95.2653 984.192 60.9442C1022.08 40.681 1052.12 45.4525 1083.44 36.8366C1114.77 28.2208 1124.18 18.5626 1162.07 -1.67654C1199.95 -21.9157 1216.83 -26.3722 1234.97 -44.1908C1253.11 -62.0095 1249.38 -80.8488 1287.26 -101.107C1325.13 -121.365 1355.18 -116.603 1386.51 -125.214C1417.84 -133.825 1427.25 -143.488 1465.13 -163.727" stroke="#CE125F" stroke-width="0.5" stroke-miterlimit="10"/>
<path d="M120.001 520.363C154.062 502.145 182.158 506.186 210.91 497.473C240.651 488.466 246.492 480.078 279.222 465.593C289.283 461.141 299.451 457.881 310.012 454.281C331.616 446.888 347.388 441.653 360.926 430.911C382.729 413.621 373.813 396.101 395.63 378.772C409.181 368.024 424.94 362.794 446.569 355.386C457.113 351.782 467.272 348.537 477.343 344.074C510.073 329.589 515.945 321.2 545.657 312.199C574.372 303.507 602.48 307.538 636.567 289.309C700.253 255.252 663.615 229.658 727.302 195.601C790.988 161.545 827.625 187.139 891.312 153.082C954.998 119.025 918.348 93.4362 982.034 59.3793C1019.99 39.0848 1050.17 44.3031 1081.7 35.388C1113.22 26.4729 1121.66 16.4881 1159.61 -3.8111C1197.57 -24.1103 1214.9 -27.8656 1233.42 -45.748C1251.94 -63.6304 1247.61 -82.6401 1285.57 -102.935C1323.52 -123.229 1353.7 -118.015 1385.23 -126.931C1416.76 -135.846 1425.2 -145.831 1463.15 -166.125" stroke="#CE125F" stroke-width="0.5" stroke-miterlimit="10"/>
<path d="M118.624 518.331C152.849 500.029 181.137 504.54 210.142 495.554C240.104 486.271 245.035 477.477 277.945 462.837C288.113 458.313 298.36 455.098 308.976 451.558C330.668 444.342 346.642 439.342 360.48 428.515C382.75 411.106 373.166 393.399 395.434 375.985C409.246 365.169 425.248 360.162 446.949 352.932C457.565 349.392 467.812 346.176 477.965 341.653C510.882 326.994 515.808 318.225 545.783 308.936C574.786 299.945 603.076 304.46 637.3 286.159C700.487 252.366 663.837 226.777 727.025 192.989C790.214 159.201 826.851 184.795 890.037 151.003C953.224 117.21 916.576 91.626 979.762 57.8334C1017.79 37.5023 1048.12 43.1728 1079.86 33.9625C1111.59 24.7523 1118.98 14.4491 1157.06 -5.90792C1195.14 -26.2649 1212.8 -29.3614 1231.97 -47.3757C1251.13 -65.3901 1245.94 -84.5068 1283.97 -104.838C1322 -125.169 1352.32 -119.503 1384.05 -128.737C1415.78 -137.971 1423.17 -148.25 1461.25 -168.607" stroke="#CE125F" stroke-width="0.5" stroke-miterlimit="10"/>
<path d="M117.261 516.294C151.636 497.915 180.143 502.889 209.411 493.615C239.611 484.021 243.614 474.89 276.707 460.065C286.979 455.461 297.288 452.286 307.979 448.818C329.738 441.767 345.931 437.006 360.058 426.105C382.758 408.596 372.564 390.696 395.262 373.182C409.4 362.272 425.582 357.52 447.365 350.454C458.095 346.97 468.365 343.811 478.624 339.212C511.717 324.388 515.713 315.238 545.933 305.657C575.214 296.378 603.695 301.363 638.081 282.973C700.758 249.459 664.08 223.876 726.797 190.347C789.513 156.817 826.123 182.417 888.812 148.893C951.5 115.37 914.811 89.7968 977.541 56.2618C1015.63 35.8901 1046.15 41.9961 1078.06 32.5113C1109.98 23.0266 1116.45 12.3419 1154.55 -8.02103C1192.66 -28.384 1210.8 -30.8661 1230.49 -48.9786C1250.18 -67.0912 1244.27 -86.3398 1282.35 -106.716C1320.44 -127.093 1350.96 -120.982 1382.89 -130.472C1414.82 -139.962 1421.27 -150.646 1459.37 -170.999" stroke="#CE125F" stroke-width="0.5" stroke-miterlimit="10"/>
<path d="M115.887 514.267C150.433 495.785 179.098 501.258 208.676 491.704C239.131 481.842 242.195 472.306 275.465 457.322C285.819 452.657 296.227 449.502 306.988 446.093C328.831 439.21 345.228 434.688 359.655 423.703C382.835 406.07 371.976 388.03 395.092 370.384C409.518 359.4 425.915 354.877 447.77 347.985C458.536 344.59 468.931 341.441 479.279 336.761C512.559 321.762 515.611 312.237 546.081 302.374C575.598 292.818 604.313 298.264 638.858 279.816C701.093 246.521 664.398 220.972 726.582 187.699C788.765 154.425 825.41 180.038 887.599 146.778C949.788 113.519 913.139 87.9348 975.33 54.68C1013.49 34.2717 1044.11 40.8269 1076.28 31.0545C1108.46 21.282 1113.87 10.2363 1152.04 -10.1626C1190.21 -30.5615 1208.81 -32.3998 1228.95 -50.5887C1249.1 -68.7775 1242.47 -88.1775 1280.67 -108.606C1318.87 -129.035 1349.45 -122.459 1381.62 -132.227C1413.8 -141.995 1419.22 -153.051 1457.44 -173.476" stroke="#CE125F" stroke-width="0.5" stroke-miterlimit="10"/>
<path d="M114.525 512.235C149.227 493.689 178.08 499.621 207.924 489.751C238.703 479.565 240.747 469.691 274.215 454.521C284.662 449.786 295.134 446.676 305.974 443.35C327.899 436.63 344.502 432.352 359.242 421.278C382.814 403.561 371.364 385.303 394.921 367.586C409.646 356.513 426.262 352.23 448.186 345.506C458.984 342.191 469.485 339.075 479.931 334.339C513.399 319.17 515.522 309.264 546.235 299.104C576.079 289.234 604.936 295.176 639.634 276.62C701.312 243.635 664.675 218.041 726.353 185.056C788.031 152.071 824.684 177.664 886.362 144.679C948.04 111.693 911.405 86.104 973.083 53.1187C1011.32 32.6691 1042.05 39.7347 1074.47 29.6183C1106.88 19.5019 1111.28 8.16477 1149.52 -12.2801C1187.76 -32.725 1206.78 -33.9036 1227.41 -52.1747C1248.04 -70.4458 1240.81 -90.0449 1278.99 -110.444C1317.18 -130.844 1347.96 -123.828 1380.38 -133.945C1412.79 -144.061 1417.19 -155.394 1455.43 -175.843" stroke="#CE125F" stroke-width="0.5" stroke-miterlimit="10"/>
<path d="M113.16 510.193C148.018 491.583 177.046 497.981 207.178 487.812C238.137 477.361 239.317 467.079 272.96 451.745C283.513 446.933 294.047 443.864 304.975 440.606C326.971 434.06 343.791 430.016 358.805 418.868C382.805 401.048 370.747 382.6 394.74 364.799C409.765 353.641 426.589 349.607 448.592 343.041C459.507 339.789 470.055 336.714 480.594 331.907C514.238 316.573 515.417 306.291 546.378 295.845C576.508 285.672 605.597 292.071 640.394 273.459C701.588 240.738 664.935 215.144 726.116 182.428C787.296 149.711 823.952 175.314 885.127 142.584C946.301 109.853 909.677 84.254 970.854 51.5282C1009.17 31.042 1040.07 38.525 1072.67 28.1481C1105.27 17.7713 1108.69 6.06465 1147 -14.4262C1185.32 -34.917 1204.76 -35.4265 1225.91 -53.7958C1247.06 -72.1651 1239.03 -91.8783 1277.34 -112.369C1315.65 -132.86 1346.55 -125.372 1379.16 -135.745C1411.76 -146.117 1415.19 -157.838 1453.49 -178.319" stroke="#CE125F" stroke-width="0.5" stroke-miterlimit="10"/>
<path d="M111.785 508.166C146.809 489.44 176.026 496.34 206.434 485.878C237.653 475.135 237.888 464.473 271.72 448.968C282.361 444.077 292.987 441.046 303.965 437.872C326.056 431.484 343.082 427.685 358.396 416.453C382.827 398.533 370.152 379.916 394.562 361.982C409.874 350.746 426.913 346.941 449.004 340.553C459.98 337.374 470.602 334.334 481.247 329.452C515.08 313.948 515.314 303.286 546.535 292.547C576.943 282.085 606.177 288.989 641.184 270.259C701.87 237.821 665.227 212.213 725.908 179.76C786.588 147.308 823.228 172.907 883.91 140.46C944.593 108.012 907.953 82.4134 968.634 49.9613C1007.01 29.4392 1038.06 37.3736 1070.88 26.7063C1103.69 16.0389 1106.11 3.9833 1144.5 -16.5441C1182.89 -37.0716 1202.75 -36.9307 1224.41 -55.3928C1246.07 -73.855 1237.31 -93.7142 1275.7 -114.242C1314.08 -134.769 1345.12 -126.829 1377.94 -137.497C1410.75 -148.164 1413.17 -160.22 1451.56 -180.747" stroke="#CE125F" stroke-width="0.5" stroke-miterlimit="10"/>
<path d="M110.422 506.129C145.594 487.32 175.007 494.698 205.69 483.944C237.157 472.913 236.461 461.87 270.467 446.197C281.225 441.257 291.915 438.233 302.962 435.118C325.123 428.9 342.368 425.339 357.968 414.028C382.827 396.004 369.527 377.194 394.384 359.165C409.99 347.869 427.241 344.284 449.414 338.06C460.465 334.954 471.213 331.923 481.883 326.992C515.903 311.313 515.201 300.256 546.688 289.239C577.358 278.49 606.782 285.858 641.941 267.055C702.124 234.872 665.452 209.303 725.67 177.094C785.888 144.886 822.492 170.51 882.675 138.327C942.857 106.143 906.185 80.5745 966.401 48.3612C1004.85 27.8025 1036.04 36.1845 1069.08 25.2314C1102.11 14.2782 1103.58 1.84235 1141.98 -18.6951C1180.38 -39.2325 1200.74 -38.4684 1222.89 -57.0228C1245.04 -75.5772 1235.57 -95.5784 1274.04 -116.147C1312.5 -136.716 1343.68 -128.324 1376.71 -139.277C1409.74 -150.23 1411.21 -162.666 1449.61 -183.203" stroke="#CE125F" stroke-width="0.5" stroke-miterlimit="10"/>
<path d="M109.035 504.107C144.368 485.211 173.975 493.063 204.933 482.015C236.664 470.701 235.019 459.269 269.214 443.425C280.048 438.411 290.832 435.431 301.958 432.398C324.187 426.349 341.652 423.027 357.539 411.637C382.84 393.504 368.917 374.51 394.218 356.377C410.111 344.964 427.582 341.661 449.823 335.601C460.949 332.568 471.681 329.609 482.552 324.574C516.76 308.725 515.121 297.307 546.848 285.984C577.806 274.937 607.4 282.794 642.733 263.897C702.418 231.983 665.766 206.389 725.451 174.475C785.136 142.561 821.786 168.149 881.484 136.23C941.182 104.31 904.53 78.7166 964.215 46.8023C1002.74 26.1977 1034.07 35.0364 1067.24 23.8247C1100.41 12.613 1100.9 -0.177729 1139.43 -20.7777C1177.95 -41.3777 1198.7 -39.9426 1221.34 -58.5986C1243.98 -77.2547 1233.81 -97.3937 1272.34 -117.998C1310.86 -138.603 1342.2 -129.76 1375.44 -141.008C1408.69 -152.256 1409.1 -165.006 1447.63 -185.61" stroke="#CE125F" stroke-width="0.5" stroke-miterlimit="10"/>
<path d="M107.684 502.065C143.168 483.09 172.955 491.421 204.202 480.075C236.174 468.461 233.59 456.662 267.976 440.653C278.914 435.558 289.772 432.613 300.961 429.659C323.285 423.767 340.956 420.69 357.142 409.216C382.859 390.985 368.333 371.815 394.046 353.574C410.233 342.101 427.916 339.018 450.238 333.122C461.437 330.191 472.273 327.228 483.211 322.133C517.595 306.119 515.01 294.321 546.998 282.705C578.232 271.365 608.039 279.671 643.515 260.716C702.688 229.071 666.05 203.477 725.235 171.827C784.421 140.177 821.056 165.766 880.245 134.125C939.434 102.485 902.78 76.8866 961.952 45.2418C1000.61 24.5793 1032.04 33.8861 1065.48 22.3526C1098.93 10.8192 1098.35 -2.28449 1136.95 -22.9257C1175.56 -43.567 1196.72 -41.4675 1219.88 -60.207C1243.03 -78.9465 1232.13 -99.241 1270.73 -119.882C1309.33 -140.523 1340.81 -131.228 1374.27 -142.767C1407.73 -154.305 1407.14 -167.404 1445.74 -188.045" stroke="#CE125F" stroke-width="0.5" stroke-miterlimit="10"/>
<path d="M106.321 500.028C141.967 480.965 171.936 489.78 203.456 478.137C235.691 466.234 232.161 454.055 266.736 437.876C277.766 432.711 288.687 429.806 299.964 426.92C322.357 421.197 340.245 418.353 356.72 406.806C382.878 388.465 367.716 369.113 393.876 350.777C410.413 339.193 428.237 336.381 450.641 330.648C461.921 327.767 472.843 324.867 483.857 319.697C518.429 303.513 514.915 291.334 547.148 279.426C578.67 267.788 608.639 276.602 644.285 257.54C702.97 226.154 666.32 200.565 725.007 169.184C783.695 137.803 820.332 163.397 879.021 132.02C937.711 100.644 901.057 75.0458 959.731 43.6699C998.381 22.998 1030.02 32.7351 1063.7 20.9199C1097.38 9.1047 1095.79 -4.35731 1134.45 -25.0345C1173.12 -45.7117 1194.73 -42.9678 1218.38 -61.7949C1242.03 -80.622 1230.42 -101.063 1269.09 -121.746C1307.77 -142.428 1339.38 -132.676 1373.05 -144.49C1406.72 -156.305 1405.14 -169.768 1443.81 -190.45" stroke="#CE125F" stroke-width="0.5" stroke-miterlimit="10"/>
<path d="M105.012 497.974C140.819 478.824 170.981 488.112 202.777 476.176C235.266 464.005 230.799 451.427 265.548 435.078C276.686 429.841 287.68 426.967 299.055 424.134C321.517 418.58 339.61 415.98 356.386 404.349C382.974 385.909 367.203 366.367 393.791 347.928C410.565 336.291 428.658 333.692 451.146 328.127C462.486 325.32 473.478 322.441 484.653 317.183C519.405 300.805 514.955 288.269 547.437 276.08C579.233 264.143 609.395 273.432 645.204 254.286C703.379 223.175 666.742 197.58 724.918 166.473C783.095 135.367 819.604 161.018 877.794 129.906C935.983 98.7939 899.331 73.2004 957.508 42.0935C996.246 21.3797 1028.01 31.5742 1061.9 19.4544C1095.79 7.33468 1093.2 -6.4574 1131.93 -27.1946C1170.66 -47.9319 1192.7 -44.5095 1216.85 -63.4241C1240.99 -82.3388 1228.68 -102.936 1267.42 -123.655C1306.15 -144.373 1337.93 -134.18 1371.81 -146.294C1405.69 -158.408 1403.11 -172.206 1441.84 -192.943" stroke="#CE125F" stroke-width="0.5" stroke-miterlimit="10"/>
<path d="M103.583 495.964C139.541 476.735 169.897 486.498 201.967 474.268C234.71 461.786 229.305 448.847 264.243 432.328C275.46 427.026 286.542 424.181 297.957 421.446C320.52 416.065 338.84 413.685 355.889 401.98C382.906 383.436 366.515 363.715 393.467 345.198C410.54 333.478 428.855 331.122 451.41 325.722C462.825 322.987 473.905 320.138 485.122 314.835C520.06 298.317 514.668 285.372 547.398 272.895C579.481 260.66 609.824 270.428 645.782 251.199C703.472 220.351 666.795 194.773 724.511 163.915C782.227 133.056 818.826 158.666 876.516 127.818C934.206 96.9698 897.527 71.387 955.23 40.5336C994.037 19.7645 1025.95 30.4298 1059.98 18.0515C1094.01 5.67316 1090.5 -8.50512 1129.31 -29.2602C1168.12 -50.0152 1190.57 -45.9612 1215.23 -64.9687C1239.88 -83.9763 1226.84 -104.729 1265.65 -125.499C1304.45 -146.268 1336.36 -135.602 1370.47 -148.012C1404.58 -160.423 1400.98 -174.568 1439.79 -195.324" stroke="#CE125F" stroke-width="0.5" stroke-miterlimit="10"/>
<path d="M102.207 493.932C138.365 474.6 168.879 484.861 201.236 472.329C234.226 459.56 227.889 446.234 263.003 429.551C274.326 424.173 285.481 421.358 296.974 418.701C319.598 413.47 338.118 411.358 355.48 399.564C382.926 380.916 365.927 361.011 393.36 342.369C410.718 330.565 429.233 328.478 451.877 323.221C463.368 320.56 474.51 317.751 485.833 312.373C520.962 295.688 514.599 282.374 547.6 269.595C579.959 257.067 610.471 267.324 646.629 247.992C703.808 217.418 667.169 191.819 724.348 161.245C781.527 130.671 818.176 156.255 875.394 125.666C932.612 95.0759 895.934 69.493 953.111 38.9145C991.983 18.1188 1024.04 29.2263 1058.35 16.5309C1092.66 3.83554 1088.08 -10.6651 1126.96 -31.4561C1165.83 -52.2471 1188.74 -47.5446 1213.89 -66.6444C1239.04 -85.7442 1225.29 -106.63 1264.18 -127.426C1303.06 -148.223 1335.11 -137.114 1369.42 -149.814C1403.73 -162.515 1399.15 -177.006 1438.03 -197.802" stroke="#CE125F" stroke-width="0.5" stroke-miterlimit="10"/>
<path d="M100.845 491.899C137.126 472.496 167.847 483.225 200.47 470.376C233.72 457.315 226.425 443.615 261.74 426.756C273.184 421.301 284.386 418.528 295.954 415.944C318.658 410.871 337.385 409.004 355.101 397.109C382.974 378.357 365.343 358.278 393.217 339.527C410.879 327.648 429.6 325.767 452.362 320.687C463.93 318.103 475.158 315.319 486.561 309.876C521.878 293.022 514.596 279.316 547.844 266.25C580.466 253.435 611.197 264.154 647.48 244.755C704.159 214.445 667.509 188.857 724.188 158.547C780.868 128.237 817.516 153.821 874.198 123.517C930.879 93.2117 894.227 67.6182 950.906 37.3086C989.869 16.4757 1022.06 28.026 1056.59 15.0354C1091.11 2.04482 1085.53 -12.7954 1124.48 -33.623C1163.43 -54.4506 1186.76 -49.0977 1212.4 -68.285C1238.05 -87.4724 1223.59 -108.515 1262.54 -129.342C1301.49 -150.17 1333.7 -138.62 1368.23 -151.611C1402.75 -164.601 1397.07 -179.4 1436.02 -200.227" stroke="#CE125F" stroke-width="0.5" stroke-miterlimit="10"/>
<path d="M99.4819 489.862C135.913 470.381 166.827 481.584 199.735 468.465C233.231 455.113 224.993 441.037 260.498 424.012C272.02 418.488 283.323 415.739 294.952 413.229C317.745 408.3 336.683 406.691 354.634 394.738C382.936 375.883 364.694 355.61 393.001 336.765C410.91 324.823 429.897 323.183 452.694 318.264C464.325 315.759 475.628 313.01 487.134 307.486C522.705 290.435 514.413 276.376 547.961 263.002C580.871 249.888 611.784 261.091 648.216 241.609C704.394 211.559 667.758 185.97 723.94 155.929C780.121 125.888 816.757 151.478 872.938 121.437C929.12 91.3964 892.467 65.803 948.649 35.7623C987.677 14.9028 1020.01 26.9005 1054.76 13.6141C1089.52 0.327734 1082.91 -14.842 1121.94 -35.7015C1160.97 -56.561 1184.71 -50.5624 1210.88 -69.8239C1237.04 -89.0853 1221.85 -110.288 1260.87 -131.157C1299.9 -152.025 1332.23 -140.042 1366.99 -153.305C1401.75 -166.568 1395.14 -181.761 1434.17 -202.62" stroke="#CE125F" stroke-width="0.5" stroke-miterlimit="10"/>
<path d="M98.1055 487.831C134.701 468.266 165.808 479.943 198.991 466.531C232.747 452.886 223.581 438.434 259.258 421.236C270.86 415.645 282.257 412.94 293.957 410.494C316.823 405.744 335.963 404.37 354.212 392.328C382.932 373.379 364.1 352.926 392.832 333.972C411.081 321.93 430.233 320.546 453.114 315.795C464.805 313.363 476.196 310.644 487.797 305.054C523.479 287.865 514.359 273.378 548.065 259.758C581.246 246.342 612.355 258.024 648.948 238.454C704.632 208.682 667.975 183.079 723.661 153.312C779.347 123.545 815.982 149.135 871.664 119.358C927.346 89.5818 890.692 63.9836 946.377 34.2165C985.484 13.3251 1017.96 25.7843 1052.84 12.2253C1087.73 -1.33377 1080.21 -16.8849 1119.31 -37.7904C1158.41 -58.6959 1182.58 -52.0329 1209.24 -71.4106C1235.9 -90.7884 1219.97 -112.098 1259.1 -133.019C1298.22 -153.94 1330.68 -141.451 1365.56 -155.01C1400.45 -168.569 1392.93 -184.12 1432.03 -205.026" stroke="#CE125F" stroke-width="0.5" stroke-miterlimit="10"/>
<path d="M96.7441 485.798C133.486 466.146 164.79 478.306 198.249 464.602C232.252 450.669 222.148 435.818 258.02 418.463C269.714 412.802 281.175 410.104 292.962 407.759C315.91 403.173 335.254 402.038 353.805 389.917C382.966 370.859 363.436 350.258 392.662 331.174C411.211 319.048 430.548 317.894 453.518 313.326C465.287 310.972 476.751 308.283 488.445 302.622C524.308 285.244 514.211 270.412 548.216 256.484C581.686 242.77 612.977 254.935 649.721 235.287C704.905 205.78 668.241 180.196 723.437 150.679C778.632 121.161 815.258 146.765 870.442 117.258C925.626 87.7503 888.961 62.1622 944.158 32.6493C983.33 11.7313 1015.95 24.6186 1051.12 10.7565C1086.29 -3.10548 1077.7 -18.9883 1116.87 -39.9398C1156.04 -60.8912 1180.65 -53.5691 1207.79 -73.0245C1234.94 -92.4798 1218.4 -114.017 1257.51 -134.908C1296.61 -155.799 1329.31 -142.944 1364.48 -156.811C1399.65 -170.678 1391.05 -186.556 1430.22 -207.497" stroke="#CE125F" stroke-width="0.5" stroke-miterlimit="10"/>
<path d="M95.3808 483.761C132.286 464.026 163.758 476.67 197.503 462.663C231.766 448.438 220.704 433.212 256.765 415.687C268.565 409.95 280.104 407.296 291.911 405.037C314.952 400.603 334.504 399.718 353.342 387.518C382.931 368.356 362.846 347.55 392.449 328.382C411.286 316.183 430.839 315.297 453.893 310.858C465.737 308.578 477.276 305.924 489.037 300.203C525.098 282.678 514.049 267.447 548.299 253.227C582.07 239.209 613.529 251.859 650.434 232.124C705.106 202.885 668.468 177.291 723.152 148.048C777.837 118.805 814.476 144.403 869.212 115.139C923.949 85.8743 887.246 60.3068 941.927 31.0541C981.163 10.0714 1013.93 23.4389 1049.32 9.28176C1084.7 -4.87543 1075.1 -21.0979 1114.34 -42.0806C1153.58 -63.0633 1178.63 -55.0968 1206.28 -74.6497C1233.93 -94.2026 1216.61 -115.831 1255.85 -136.813C1295.08 -157.796 1327.85 -144.429 1363.24 -158.586C1398.62 -172.743 1389.03 -188.971 1428.27 -209.953" stroke="#CE125F" stroke-width="0.5" stroke-miterlimit="10"/>
<path d="M94.0044 481.73C131.073 461.911 162.731 475.01 196.759 460.729C231.27 446.217 219.275 430.605 255.525 412.91C267.406 407.113 279.032 404.484 290.951 402.277C314.072 398.002 333.829 397.356 352.957 385.087C382.988 365.816 362.335 344.809 392.301 325.565C411.451 313.275 431.212 312.638 454.333 308.364C466.254 306.161 477.865 303.533 489.759 297.73C525.996 280.041 514.001 264.429 548.513 249.917C582.533 235.617 614.213 248.734 651.28 228.911C705.453 199.942 668.801 174.348 722.987 145.374C777.174 116.4 813.811 141.994 867.985 113.025C922.158 84.0555 885.573 58.4401 939.707 29.487C979.02 8.46771 1011.93 22.2874 1047.53 7.83972C1083.13 -6.60795 1072.53 -23.1606 1111.83 -44.1987C1151.14 -65.2367 1176.64 -56.6116 1204.78 -76.2468C1232.91 -95.882 1214.89 -117.667 1254.2 -138.686C1293.51 -159.705 1326.42 -145.886 1362.02 -160.338C1397.62 -174.79 1387.03 -191.344 1426.34 -212.382" stroke="#CE125F" stroke-width="0.5" stroke-miterlimit="10"/>
<path d="M92.6429 479.697C129.858 459.791 161.717 473.383 196.014 458.795C230.788 443.995 217.845 427.994 254.272 410.139C266.259 404.265 277.959 401.671 289.956 399.542C313.157 395.427 333.117 395.053 352.55 382.676C382.996 363.306 361.686 342.141 392.131 322.767C411.57 310.403 431.537 310.011 454.751 305.89C466.734 303.766 478.425 301.148 490.407 295.299C526.845 277.434 513.906 261.442 548.677 246.638C582.973 232.045 614.834 245.641 652.051 225.74C705.725 197.035 669.087 171.441 722.761 142.736C776.435 114.031 813.087 139.625 866.761 110.92C920.434 82.2149 883.797 56.6208 937.473 27.9206C976.858 6.85533 1009.92 21.1265 1045.72 6.39365C1081.53 -8.33919 1069.94 -25.2654 1109.27 -46.3048C1148.61 -67.3441 1174.55 -58.0887 1203.2 -77.8267C1231.86 -97.5647 1213.11 -119.486 1252.49 -140.541C1291.86 -161.597 1324.93 -147.335 1360.75 -162.074C1396.57 -176.812 1384.95 -193.727 1424.3 -214.772" stroke="#CE125F" stroke-width="0.5" stroke-miterlimit="10"/>
<path d="M91.2666 477.665C128.671 457.666 160.701 471.751 195.27 456.86C230.291 441.774 216.403 425.392 253.034 407.367C265.111 401.418 276.898 398.849 288.946 396.808C312.227 392.851 332.402 392.707 352.075 380.286C382.964 360.808 361.034 339.463 391.907 319.985C411.636 307.553 431.807 307.399 455.038 303.469C467.097 301.418 478.869 298.849 490.949 292.905C527.63 274.854 513.691 258.498 548.712 243.412C583.279 228.516 615.335 242.591 652.714 222.602C705.89 194.166 669.239 168.577 722.428 140.136C775.617 111.694 812.242 137.294 865.418 108.858C918.594 80.4219 881.956 54.8278 935.132 26.3919C974.593 5.29004 1007.78 20.0186 1043.82 4.99939C1079.85 -10.0199 1067.24 -27.2991 1106.7 -48.3962C1146.17 -69.4934 1172.48 -59.5717 1201.64 -79.3973C1230.79 -99.2229 1211.31 -121.286 1250.78 -142.388C1290.24 -163.489 1323.43 -148.761 1359.46 -163.78C1395.5 -178.799 1382.88 -196.078 1422.34 -217.18" stroke="#CE125F" stroke-width="0.5" stroke-miterlimit="10"/>
<path d="M89.9032 475.628C127.446 455.556 159.686 470.119 194.526 454.926C229.807 439.547 214.974 422.785 251.781 404.595C263.964 398.57 275.826 396.036 287.949 394.069C311.31 390.271 331.691 390.371 351.705 377.855C383.022 358.272 360.485 336.743 391.789 317.166C411.814 304.64 432.195 304.74 455.571 300.942C467.693 298.969 479.553 296.431 491.725 290.416C528.53 272.221 513.698 255.464 548.979 240.085C583.796 224.907 616.06 239.455 653.6 219.378C706.278 191.211 669.626 165.617 722.317 137.445C775.008 109.273 811.633 134.872 864.27 106.716C916.907 78.5606 880.296 52.9558 932.987 24.7835C972.509 3.64566 1005.85 18.8258 1042.1 3.50196C1078.34 -11.8218 1064.73 -29.4265 1104.25 -50.5643C1143.77 -71.7021 1170.55 -61.122 1200.2 -81.0451C1229.86 -100.968 1209.66 -123.172 1249.2 -144.311C1288.74 -165.449 1322.07 -150.268 1358.31 -165.592C1394.56 -180.916 1380.94 -198.526 1420.48 -219.664" stroke="#CE125F" stroke-width="0.5" stroke-miterlimit="10"/>
<path d="M88.5417 473.596C126.231 453.437 158.672 468.492 193.782 452.992C229.311 437.326 213.545 420.179 250.54 401.818C262.8 395.719 274.754 393.224 286.952 391.329C310.396 387.695 330.982 388.039 351.302 375.453C383.034 355.772 359.89 334.059 391.675 314.357C411.987 301.752 432.575 302.101 456.037 298.475C468.236 296.581 480.177 294.091 492.436 287.992C529.422 269.608 513.666 252.484 549.195 236.818C584.326 221.331 616.744 236.369 654.448 216.208C706.626 188.306 669.976 162.717 722.154 134.814C774.333 106.911 810.974 132.477 863.15 104.607C915.327 76.7378 878.691 51.1103 930.87 23.2074C970.468 2.03305 1003.95 17.6653 1040.41 2.05099C1076.87 -13.5633 1062.26 -31.4935 1101.85 -52.6913C1141.44 -73.8892 1168.64 -62.6352 1198.8 -82.6513C1228.97 -102.667 1208.05 -125.013 1247.64 -146.187C1287.24 -167.361 1320.74 -151.735 1357.19 -167.343C1393.63 -182.952 1379.04 -200.917 1418.64 -222.096" stroke="#CE125F" stroke-width="0.5" stroke-miterlimit="10"/>
<path d="M87.1654 471.564C125.018 451.322 157.656 466.861 193.051 451.052C228.827 435.1 212.095 417.559 249.287 399.047C261.664 392.899 273.679 390.407 285.943 388.595C309.492 385.109 330.323 385.682 350.874 373.029C383.048 353.239 359.273 331.356 391.445 311.561C412.085 298.866 432.84 299.476 456.39 295.989C468.651 294.173 480.672 291.695 493.03 285.539C530.214 267.008 513.503 249.481 549.266 233.533C584.67 217.748 617.286 233.269 655.139 213.026C706.808 185.364 670.18 159.794 721.86 132.16C773.541 104.526 810.179 130.12 861.857 102.481C913.536 74.8428 876.897 49.2821 928.566 21.62C968.226 0.409704 1001.86 16.4935 1038.47 0.615269C1075.08 -15.2629 1059.53 -33.5927 1099.2 -54.8224C1138.87 -76.0522 1166.48 -64.1478 1197.15 -84.2514C1227.81 -104.355 1206.18 -126.862 1245.86 -148.073C1285.53 -169.284 1319.15 -153.204 1355.76 -169.082C1392.37 -184.96 1376.82 -203.29 1416.49 -224.52" stroke="#CE125F" stroke-width="0.5" stroke-miterlimit="10"/>
<path d="M85.802 469.527C123.818 449.201 156.614 465.201 192.307 449.118C228.33 432.878 210.672 414.966 248.045 396.265C260.509 390.033 272.605 387.589 284.944 385.851C308.573 382.524 329.508 383.388 350.444 370.599C383.052 350.72 358.665 328.639 391.265 308.74C412.168 295.981 433.155 296.824 456.792 293.478C469.112 291.731 481.212 289.297 493.675 283.064C531.05 264.368 513.379 246.461 549.414 230.211C585.093 214.134 617.912 230.151 655.919 209.802C707.034 182.459 670.449 156.844 721.63 129.474C772.811 102.104 809.448 127.698 860.629 100.329C911.81 72.9591 875.159 47.3703 926.327 20.006C966.076 -1.24628 999.851 15.2896 1036.73 -0.900302C1073.61 -17.0902 1057 -35.7477 1096.75 -57C1136.5 -78.2522 1164.58 -65.7328 1195.7 -85.908C1226.82 -106.083 1204.51 -128.753 1244.26 -150.005C1284.01 -171.257 1317.77 -154.72 1354.66 -170.916C1391.56 -187.111 1374.93 -205.763 1414.68 -227.015" stroke="#CE125F" stroke-width="0.5" stroke-miterlimit="10"/>
<path d="M84.4276 467.5C122.605 447.086 155.597 463.565 191.576 447.179C227.861 430.651 209.256 412.354 246.807 393.493C259.415 387.169 271.559 384.766 283.962 383.111C307.671 379.943 328.852 381.035 350.056 368.197C383.072 348.2 358.072 325.959 391.166 305.93C412.368 293.087 433.553 294.189 457.275 291.015C469.674 289.351 481.857 286.932 494.413 280.629C531.964 261.768 513.361 243.476 549.646 226.948C585.61 210.563 618.604 227.046 656.792 206.622C707.462 179.526 670.825 153.932 721.443 126.858C772.061 99.784 808.763 125.352 859.444 98.246C910.126 71.1406 873.477 45.5565 924.095 18.4823C963.905 -2.80594 997.832 14.1767 1034.93 -2.30367C1072.02 -18.7841 1054.39 -37.7851 1094.29 -59.1106C1134.19 -80.436 1162.58 -67.2044 1194.24 -87.4931C1225.91 -107.782 1202.84 -130.572 1242.65 -151.86C1282.47 -173.148 1316.39 -156.165 1353.48 -172.651C1390.58 -189.136 1372.98 -208.138 1412.79 -229.426" stroke="#CE125F" stroke-width="0.5" stroke-miterlimit="10"/>
<path d="M83.0642 465.463C121.39 444.967 154.538 461.939 190.818 445.25C227.365 428.43 207.8 409.753 245.554 390.721C258.151 384.369 270.473 381.959 282.939 380.383C306.741 377.368 328.13 378.709 349.621 365.792C383.078 345.686 357.473 323.265 390.89 303.17C412.394 290.248 433.784 291.593 457.6 288.573C470.063 286.992 482.319 284.604 494.971 278.24C532.765 259.192 513.176 240.531 549.722 223.711C585.948 207.038 619.135 223.994 657.461 203.498C707.645 176.661 670.994 151.073 721.179 124.241C771.365 97.4089 807.987 123.004 858.17 96.1671C908.354 69.3305 871.705 43.7464 921.875 16.9152C961.773 -4.41961 995.815 13.0306 1033.14 -3.75033C1070.46 -20.5312 1051.81 -39.8618 1091.71 -61.1966C1131.61 -82.5314 1160.5 -68.682 1192.66 -89.0583C1224.83 -109.435 1201.08 -132.401 1240.98 -153.736C1280.88 -175.071 1314.92 -157.616 1352.24 -174.397C1389.56 -191.178 1370.91 -210.513 1410.81 -231.843" stroke="#CE125F" stroke-width="0.5" stroke-miterlimit="10"/>
<path d="M81.7009 463.426C120.178 442.852 153.56 460.287 190.074 443.316C226.868 426.209 206.371 407.146 244.303 387.955C257.055 381.5 269.399 379.142 281.94 377.639C305.824 374.787 327.406 376.378 349.199 363.382C383.083 343.167 356.873 320.566 390.745 300.361C412.55 287.355 434.133 288.951 458.028 286.089C470.569 284.586 482.911 282.223 495.652 275.778C533.585 256.587 513.086 237.52 549.894 220.412C586.394 203.441 619.778 220.881 658.266 200.297C707.938 173.735 671.301 148.14 720.971 121.573C770.642 95.0065 807.296 120.605 856.968 94.0423C906.641 67.48 870.002 41.8812 919.674 15.3188C959.57 -6.02064 993.831 11.8544 1031.3 -5.19509C1068.77 -22.2446 1049.22 -41.9619 1089.17 -63.3227C1129.12 -84.6834 1158.47 -70.1948 1191.13 -90.6634C1223.78 -111.132 1199.3 -134.22 1239.26 -155.591C1279.22 -176.962 1313.42 -159.056 1350.89 -176.105C1388.36 -193.155 1368.8 -212.862 1408.77 -234.209" stroke="#CE125F" stroke-width="0.5" stroke-miterlimit="10"/>
<path d="M80.3263 461.399C118.978 440.732 152.542 458.65 189.328 441.377C226.384 423.982 204.94 404.535 243.063 385.178C255.908 378.653 268.314 376.335 280.943 374.899C304.918 372.197 326.697 374.046 348.79 360.966C383.102 340.647 356.259 317.873 390.573 297.559C412.664 284.474 434.456 286.318 458.444 283.61C471.035 282.191 483.464 279.857 496.311 273.337C534.432 253.975 512.988 234.528 550.044 217.133C586.832 199.864 620.397 217.783 659.035 197.121C708.161 170.82 671.57 145.229 720.743 118.931C769.916 92.6326 806.568 118.226 855.743 91.9326C904.917 65.6392 868.278 40.0404 917.451 13.7423C957.473 -7.65971 991.821 10.6887 1029.56 -6.66781C1067.3 -24.0244 1046.69 -44.0693 1086.71 -65.4714C1126.73 -86.8734 1156.51 -71.7298 1189.69 -92.2965C1222.86 -112.863 1197.63 -136.082 1237.67 -157.494C1277.7 -178.906 1312.05 -160.553 1349.79 -177.91C1387.53 -195.266 1366.92 -215.312 1406.94 -236.714" stroke="#CE125F" stroke-width="0.5" stroke-miterlimit="10"/>
<path d="M78.963 459.362C117.757 438.598 151.523 457.009 188.584 439.442C225.889 421.765 203.498 401.933 241.81 382.406C254.748 375.811 267.265 373.507 279.933 372.165C304.002 369.616 325.986 371.71 348.368 358.556C383.057 338.155 355.66 315.179 390.401 294.756C412.794 281.592 434.778 283.686 458.847 281.137C471.515 279.795 484.031 277.486 496.957 270.901C535.269 251.374 512.887 231.565 550.194 213.855C587.255 196.288 621.015 214.685 659.817 193.94C708.44 167.932 671.853 142.312 720.527 116.283C769.202 90.2535 805.842 115.852 854.517 89.8231C903.192 63.7939 866.552 38.1951 915.227 12.1659C955.326 -9.27272 989.812 9.52787 1027.77 -8.11916C1065.72 -25.7662 1044.13 -46.1708 1084.2 -67.6035C1124.27 -89.0361 1154.49 -73.2387 1188.16 -93.8877C1221.82 -114.537 1195.91 -137.928 1236 -159.385C1276.09 -180.843 1310.58 -162.023 1348.55 -179.676C1386.52 -197.328 1364.91 -217.727 1404.98 -239.16" stroke="#CE125F" stroke-width="0.5" stroke-miterlimit="10"/>
<path d="M77.5885 457.335C116.552 436.502 150.505 455.373 187.834 437.494C225.4 419.525 202.062 399.308 240.564 379.615C253.594 372.949 266.187 370.68 278.934 369.421C303.096 367.026 325.273 369.369 347.942 356.136C383.098 335.615 355.045 312.481 390.214 291.954C412.896 278.716 435.088 281.059 459.224 278.674C471.954 277.41 484.543 275.132 497.594 268.479C536.096 248.787 512.758 228.57 550.322 210.596C587.659 192.736 621.614 211.612 660.567 190.755C708.732 165 672.094 139.406 720.23 113.657C768.366 87.9081 805.049 113.5 853.222 87.7306C901.395 61.961 864.747 36.3769 912.885 10.6325C953.056 -10.852 987.696 8.40007 1025.87 -9.54214C1064.03 -27.4843 1041.41 -48.2131 1081.58 -69.6977C1121.76 -91.1823 1152.44 -74.7458 1186.51 -95.4504C1220.59 -116.155 1194.05 -139.725 1234.22 -161.209C1274.39 -182.694 1309.02 -163.432 1347.19 -181.374C1385.36 -199.316 1362.75 -220.055 1402.92 -241.535" stroke="#CE125F" stroke-width="0.5" stroke-miterlimit="10"/>
<path d="M76.2252 455.298C115.345 434.401 149.488 453.736 187.096 435.574C224.922 417.312 200.624 396.716 239.317 376.858C252.453 370.116 265.132 367.872 277.939 366.687C302.181 364.45 324.566 367.042 347.534 353.725C383.159 333.084 354.461 309.786 390.057 289.151C413.041 275.833 435.413 278.431 459.668 276.189C472.473 274.999 485.15 272.75 498.275 266.018C536.978 246.184 512.67 225.564 550.49 207.288C588.098 189.126 622.249 208.479 661.361 187.564C709.042 162.077 672.401 136.474 720.065 110.983C767.73 85.4923 804.382 111.086 852.059 85.5897C899.737 60.0937 863.099 34.4996 910.764 9.00885C951.011 -12.5123 985.777 7.19723 1024.11 -11.0048C1062.45 -29.2069 1038.88 -50.3206 1079.12 -71.8364C1119.35 -93.3523 1150.42 -76.2547 1185.09 -97.0841C1219.75 -117.914 1192.4 -141.597 1232.57 -163.087C1272.74 -184.576 1307.6 -164.904 1345.92 -183.1C1384.25 -201.297 1360.69 -222.421 1400.92 -243.937" stroke="#CE125F" stroke-width="0.5" stroke-miterlimit="10"/>
<path d="M74.8619 453.261C114.135 432.257 148.468 452.095 186.352 433.64C224.425 415.091 199.195 394.109 238.076 374.081C251.294 367.278 264.059 365.059 276.929 363.953C301.277 361.864 323.842 364.711 347.112 351.314C383.141 330.585 353.861 307.087 389.885 286.349C413.155 272.952 435.709 275.809 460.083 273.71C472.94 272.608 485.705 270.39 498.921 263.582C537.829 243.543 512.56 222.577 550.646 204.023C588.732 185.469 622.875 205.4 662.149 184.397C709.315 159.175 672.68 133.586 719.842 108.354C767.005 83.1232 803.673 108.716 850.839 83.4942C898.006 58.2724 861.37 32.683 908.546 7.44645C948.854 -14.1107 983.775 6.05041 1022.37 -12.4728C1060.97 -30.9959 1036.35 -52.4279 1076.66 -73.9803C1116.97 -95.5327 1148.46 -77.7801 1183.62 -98.7018C1218.78 -119.623 1190.73 -143.455 1230.99 -164.99C1271.25 -186.526 1306.23 -166.392 1344.83 -184.915C1383.43 -203.438 1358.81 -224.865 1399.12 -246.423" stroke="#CE125F" stroke-width="0.5" stroke-miterlimit="10"/>
<path d="M73.4874 451.234C112.923 430.142 147.451 450.458 185.613 431.72C223.776 412.981 197.77 391.511 236.831 371.328C250.153 364.444 263.004 362.251 275.938 361.227C300.366 359.297 323.137 362.389 346.709 348.912C383.162 328.07 353.255 304.412 389.719 283.56C413.298 270.103 436.064 273.18 460.505 271.245C473.426 270.226 486.277 268.033 499.586 261.155C538.658 240.961 512.466 219.595 550.867 200.732C589.024 181.979 623.552 202.295 662.915 181.25C709.594 156.287 672.944 130.698 719.624 105.735C766.304 80.772 802.943 106.371 849.61 81.4132C896.277 56.4556 859.639 30.8615 906.319 5.89854C946.704 -15.6952 981.763 4.91803 1020.58 -13.8956C1059.39 -32.7093 1033.76 -54.4855 1074.17 -76.0945C1114.58 -97.7035 1146.47 -79.2759 1182.14 -100.29C1217.81 -121.305 1189.03 -145.277 1229.39 -166.865C1269.75 -188.453 1304.83 -167.846 1343.65 -186.659C1382.46 -205.473 1356.83 -227.249 1397.24 -248.858" stroke="#CE125F" stroke-width="0.5" stroke-miterlimit="10"/>
<path d="M72.124 449.197C111.71 428.027 146.418 448.86 184.863 429.771C223.486 410.67 196.32 388.891 235.585 368.537C248.999 361.583 261.926 359.424 274.928 358.493C299.452 356.688 322.428 360.057 346.287 346.502C383.169 325.556 352.654 301.714 389.536 280.768C413.402 267.193 436.376 270.557 460.908 268.771C473.91 267.84 486.831 265.667 500.25 258.727C539.514 238.368 512.344 216.58 550.97 197.488C589.376 178.415 624.113 199.242 663.71 178.063C709.84 153.39 673.241 127.78 719.41 103.092C765.579 78.4029 802.23 103.992 848.399 79.303C894.568 54.6143 857.929 29.0155 904.111 4.32149C944.556 -17.3082 979.822 3.73522 1018.8 -15.3523C1057.78 -34.4399 1031.19 -56.5769 1071.65 -78.2119C1112.11 -99.8468 1144.46 -80.7801 1180.61 -101.906C1216.77 -123.031 1187.29 -147.131 1227.75 -168.757C1268.21 -190.383 1303.46 -169.343 1342.45 -188.436C1381.44 -207.529 1354.85 -229.661 1395.31 -251.296" stroke="#CE125F" stroke-width="0.5" stroke-miterlimit="10"/>
<path d="M70.7476 447.165C110.51 425.907 145.438 447.203 184.119 427.837C222.801 408.471 194.891 386.285 234.326 365.752C247.833 358.727 260.849 356.564 273.92 355.726C298.547 354.098 321.672 357.685 345.853 344.064C383.135 322.981 352.083 299.014 389.352 277.937C413.546 264.311 436.693 267.911 461.314 266.269C474.373 265.402 487.43 263.267 500.879 256.249C540.333 235.725 512.222 213.566 551.099 194.158C589.976 174.75 624.711 196.093 664.458 174.836C710.142 150.411 673.49 124.817 719.135 100.408C764.78 75.9988 801.455 101.572 847.126 77.1525C892.797 52.7327 856.158 27.134 901.801 2.72011C942.336 -18.9514 977.689 2.56528 1016.87 -16.8074C1056.05 -36.1802 1028.49 -58.672 1069.02 -80.3483C1109.55 -102.025 1142.32 -82.3028 1178.98 -103.492C1215.64 -124.682 1185.45 -148.962 1225.99 -170.644C1266.54 -192.326 1301.88 -170.799 1341.06 -190.171C1380.24 -209.544 1352.68 -232.041 1393.21 -253.712" stroke="#CE125F" stroke-width="0.5" stroke-miterlimit="10"/>
<path d="M69.3862 445.132C109.282 423.793 144.419 445.562 183.375 425.903C222.332 406.244 193.473 383.668 233.092 362.989C246.691 355.893 259.727 353.816 272.929 353C297.636 351.531 320.98 355.357 345.45 341.662C383.147 320.481 351.488 296.329 389.225 275.132C413.706 261.427 437.041 265.268 461.761 263.793C474.885 263.01 487.931 260.922 501.583 253.806C541.227 233.116 512.17 210.572 551.3 190.891C590.43 171.211 625.378 193.002 665.289 171.662C710.46 147.506 673.836 121.907 718.992 97.752C764.149 73.5971 800.801 99.1906 845.973 75.035C891.144 50.8795 854.52 25.28 899.676 1.12511C940.271 -20.5871 975.738 1.39715 1015.22 -18.3033C1054.71 -38.0037 1026.05 -60.8073 1066.64 -82.5242C1107.23 -104.241 1140.51 -83.8921 1177.62 -105.153C1214.72 -126.413 1183.87 -150.862 1224.51 -172.59C1265.16 -194.319 1300.58 -172.318 1340.06 -192.019C1379.55 -211.719 1350.89 -234.523 1391.49 -256.245" stroke="#CE125F" stroke-width="0.5" stroke-miterlimit="10"/>
<path d="M68.0324 443.119C108.092 421.696 143.409 443.944 182.641 423.992C221.872 404.04 192.026 381.091 231.849 360.241C245.619 353.043 258.741 350.99 271.928 350.29C296.741 348.969 320.268 353.054 345.037 339.275C383.178 317.99 350.885 293.659 389.023 272.37C413.78 258.596 437.335 262.675 462.148 261.354C475.333 260.649 488.52 258.57 502.147 251.43C541.981 230.571 511.967 207.657 551.355 187.679C590.744 167.701 625.904 189.975 665.976 168.547C710.648 144.656 673.998 119.067 718.671 95.1801C763.345 71.2934 799.994 96.8775 844.667 72.9909C889.341 49.1042 852.689 23.5107 897.362 -0.375929C938.033 -22.1247 973.665 0.301083 1013.34 -19.6792C1053.02 -39.6595 1023.37 -62.8227 1064.05 -84.5668C1104.72 -106.311 1138.35 -85.2943 1176.02 -106.674C1213.7 -128.054 1182.04 -152.612 1222.71 -174.361C1263.38 -196.11 1299.03 -173.689 1338.71 -193.67C1378.38 -213.65 1348.74 -236.808 1389.41 -258.557" stroke="#CE125F" stroke-width="0.5" stroke-miterlimit="10"/>
<path d="M66.5944 441.085C106.817 419.579 142.33 442.306 181.861 422.045C221.392 401.785 190.522 378.449 230.573 357.451C244.32 350.197 257.646 348.159 270.901 347.552C295.808 346.384 319.529 350.724 344.585 336.866C383.168 315.471 350.252 290.957 388.818 269.559C413.887 255.695 437.609 260.035 462.517 258.872C475.767 258.25 489.057 256.2 502.832 248.978C542.87 227.986 511.908 204.649 551.544 184.384C591.18 164.119 626.562 186.861 666.811 165.344C710.985 141.722 674.345 116.123 718.508 92.5107C762.671 68.8982 799.332 94.477 843.506 70.8546C887.68 47.2322 851.03 21.6434 895.204 -1.97904C935.936 -23.7638 971.722 -0.886529 1011.61 -21.1573C1051.51 -41.428 1020.85 -64.9355 1061.6 -86.7255C1102.34 -108.516 1136.41 -86.8352 1174.57 -108.302C1212.73 -129.769 1180.38 -154.479 1221.13 -176.27C1261.87 -198.06 1297.66 -175.182 1337.54 -195.448C1377.42 -215.713 1346.79 -239.231 1387.54 -261.021" stroke="#CE125F" stroke-width="0.5" stroke-miterlimit="10"/>
<path d="M65.285 439.031C105.668 417.433 141.362 440.643 181.143 420.1C220.923 399.558 189.121 375.836 229.348 354.673C243.238 347.361 256.597 345.332 269.925 344.788C294.922 343.769 318.833 348.349 344.197 334.425C383.194 312.933 349.646 288.244 388.67 266.741C414.028 252.803 438.011 257.375 462.956 256.378C476.28 255.863 489.634 253.82 503.508 246.503C543.747 225.335 511.816 201.633 551.711 181.071C591.605 160.509 627.225 183.723 667.581 162.135C711.218 138.797 674.607 113.193 718.281 89.8345C761.955 66.4763 798.591 92.0657 842.271 68.7216C885.951 45.3775 849.295 19.7746 892.971 -3.5789C933.779 -25.4002 969.702 -2.07555 1009.76 -22.6155C1049.81 -43.1555 1018.22 -67.0337 1059.04 -88.8604C1099.86 -110.687 1134.35 -88.3563 1173.01 -109.916C1211.68 -131.476 1178.61 -156.332 1219.43 -178.159C1260.25 -199.986 1296.16 -176.656 1336.22 -197.196C1376.27 -217.736 1344.68 -241.614 1385.5 -263.44" stroke="#CE125F" stroke-width="0.5" stroke-miterlimit="10"/>
<path d="M63.9216 436.994C104.455 415.318 140.343 439.002 180.399 418.166C220.454 397.33 187.745 373.208 228.108 351.897C242.072 344.504 255.536 342.509 268.915 342.054C294.005 341.189 318.131 346.036 343.801 332.004C383.24 310.402 349.121 285.509 388.531 263.947C414.174 249.926 438.301 254.773 463.417 253.897C476.807 253.432 490.258 251.442 504.224 244.054C544.651 222.712 511.777 198.634 551.931 177.78C592.086 156.926 627.819 180.64 668.377 158.949C711.549 135.85 674.916 110.265 718.066 87.1865C761.216 64.1078 797.882 89.696 841.058 66.6067C884.235 43.5174 847.584 17.9286 890.747 -5.15537C931.643 -27.0233 967.709 -3.23713 1008.02 -24.0882C1048.32 -44.9393 1015.69 -69.1411 1056.64 -91.0303C1097.58 -112.92 1132.44 -89.9078 1171.61 -111.565C1210.78 -133.223 1176.99 -158.216 1217.87 -180.078C1258.75 -201.941 1294.81 -178.14 1335.09 -198.961C1375.36 -219.782 1342.77 -244.024 1383.7 -265.908" stroke="#CE125F" stroke-width="0.5" stroke-miterlimit="10"/>
<path d="M62.5713 434.952C103.268 413.192 139.349 437.35 179.68 416.221C220.012 395.092 186.277 370.617 226.88 349.114C240.952 341.651 254.512 339.666 267.944 339.304C293.161 338.562 317.447 343.689 343.378 329.594C383.261 307.887 348.471 282.836 388.34 261.135C414.218 247.057 438.547 252.177 463.783 251.444C477.213 251.077 490.759 249.098 504.831 241.634C545.435 220.131 511.627 195.664 552.031 174.527C592.435 153.391 628.444 177.556 669.138 155.792C711.804 132.977 675.187 107.358 717.83 84.5631C760.474 61.768 797.146 87.3367 839.825 64.5164C882.504 41.696 845.873 16.0825 888.517 -6.71253C929.475 -28.6117 965.694 -4.3787 1006.22 -25.5203C1046.74 -46.6618 1013.11 -71.2179 1054.05 -93.1118C1095 -115.006 1130.36 -91.3808 1170.04 -113.107C1209.72 -134.833 1175.2 -160.001 1216.17 -181.905C1257.14 -203.81 1293.34 -179.576 1333.87 -200.718C1374.39 -221.859 1340.76 -246.416 1381.72 -268.315" stroke="#CE125F" stroke-width="0.5" stroke-miterlimit="10"/>
<path d="M61.1838 432.93C102.027 411.083 138.278 435.73 178.91 414.298C219.543 392.865 184.822 368.021 225.601 346.354C239.766 338.819 253.401 336.87 266.916 336.599C292.214 336.021 316.706 341.392 342.938 327.213C383.236 305.408 347.839 280.172 388.137 258.368C414.382 244.183 438.876 249.559 464.187 248.975C477.732 248.666 491.314 246.737 505.476 239.232C546.279 217.549 511.517 192.716 552.167 171.287C592.816 149.859 629.122 174.418 669.915 152.597C712.081 130.046 675.43 104.457 717.609 81.901C759.788 59.3449 796.427 84.9437 838.593 62.3928C880.759 39.842 844.122 14.2479 886.289 -8.29823C927.32 -30.2434 963.68 -5.55354 1004.42 -26.9809C1045.16 -48.4083 1010.52 -73.3132 1051.54 -95.2531C1092.56 -117.193 1128.36 -92.9043 1168.52 -114.737C1208.69 -136.569 1173.48 -161.87 1214.51 -183.811C1255.54 -205.751 1291.89 -181.061 1332.64 -202.493C1373.4 -223.926 1338.74 -248.826 1379.77 -270.771" stroke="#CE125F" stroke-width="0.5" stroke-miterlimit="10"/>
<path d="M59.8074 430.898C100.827 408.963 137.271 434.083 178.166 412.363C219.061 390.643 183.382 365.424 224.361 343.577C238.619 335.972 252.367 334.041 265.95 333.825C291.344 333.405 316.042 339.02 342.56 324.762C383.3 302.848 347.264 277.425 388.009 255.525C414.541 241.261 439.176 246.908 464.634 246.462C478.215 246.241 491.91 244.327 506.221 236.705C547.201 214.858 511.507 189.639 552.417 167.918C593.326 146.198 629.754 171.314 670.775 149.384C712.443 127.102 675.804 101.503 717.472 79.2209C759.14 56.939 795.694 82.5509 837.367 60.283C879.041 38.0152 842.463 12.3804 884.06 -9.88898C925.206 -31.8867 961.653 -6.72344 1002.57 -28.4347C1043.48 -50.146 1007.89 -75.4071 1048.98 -97.3835C1090.08 -119.36 1126.3 -94.4209 1166.97 -116.346C1207.64 -138.272 1171.71 -163.7 1212.8 -185.69C1253.89 -207.681 1290.41 -182.53 1331.31 -204.236C1372.21 -225.942 1336.63 -251.209 1377.73 -273.185" stroke="#CE125F" stroke-width="0.5" stroke-miterlimit="10"/>
<path d="M58.4441 428.861C99.5883 406.859 136.252 432.442 177.422 410.429C218.592 388.416 181.979 362.807 223.121 340.8C264.263 318.793 300.929 344.381 342.099 322.368C383.269 300.355 346.63 274.756 387.798 252.738C428.967 230.721 465.619 256.314 506.787 234.296C547.956 212.279 511.307 186.695 552.475 164.677C593.644 142.659 630.296 168.253 671.464 146.235C712.633 124.217 675.984 98.6333 717.152 76.6156C758.321 54.5979 794.973 80.1913 836.142 58.1736C877.31 36.1559 840.672 10.5618 881.843 -11.4512C923.013 -33.4642 959.65 -7.87009 1000.82 -29.8878C1041.99 -51.9055 1005.35 -77.4996 1046.52 -99.5126C1087.69 -121.526 1124.33 -95.9315 1165.5 -117.949C1206.66 -139.967 1170.03 -165.561 1211.2 -187.574C1252.37 -209.587 1289.02 -184.003 1330.19 -206.016C1371.36 -228.029 1334.72 -253.628 1375.88 -275.645" stroke="#CE125F" stroke-width="0.5" stroke-miterlimit="10"/>
</g>
<defs>
<clipPath id="clip0_413_148">
<rect width="329.76" height="1542.29" fill="white" transform="matrix(0.377994 0.925808 0.925808 -0.377994 0 285.976)"/>
</clipPath>
</defs>
</svg>
